<svg width="456" height="193" viewBox="0 0 456 193" fill="none" xmlns="http://www.w3.org/2000/svg">
<path d="M331.338 127.881C332.097 127.851 332.352 127.207 332.716 126.77C334.677 124.402 336.596 122.004 338.545 119.624C341.192 116.406 343.857 113.201 346.826 110.268C347.894 109.212 349.005 108.192 350.238 107.33C352.448 105.788 354.913 106.231 356.461 108.453C356.904 109.084 357.147 109.764 357.159 110.554C357.183 112.144 356.892 113.68 356.491 115.204C355.823 117.712 355.119 120.207 354.482 122.721C354.281 123.51 354.233 124.336 354.142 125.149C354.13 125.24 354.251 125.404 354.348 125.441C354.451 125.483 354.646 125.459 354.712 125.386C355.374 124.7 356.048 124.02 356.661 123.291C358.768 120.778 360.832 118.228 362.951 115.733C365.21 113.073 367.547 110.499 370.194 108.21C371.281 107.269 372.41 106.389 373.691 105.721C374.426 105.338 375.179 105.053 376.023 105.011C378.057 104.901 379.605 105.691 380.649 107.445C381.535 108.939 381.912 110.596 382.173 112.296C382.653 115.411 382.58 118.562 382.926 121.689C383.035 122.702 383.175 123.722 383.357 124.724C383.454 125.252 383.636 125.787 383.867 126.272C384.498 127.602 385.385 128.063 386.854 127.875C388.924 127.608 390.782 126.77 392.549 125.696C394.832 124.311 396.963 122.708 398.972 120.954C401.34 118.89 403.665 116.771 406.021 114.7C406.944 113.893 407.879 113.085 408.881 112.375C410.344 111.331 411.212 111.416 412.517 112.618C412.815 112.891 413.076 113.213 413.331 113.535C413.519 113.771 413.489 114.039 413.307 114.281C413.228 114.391 413.149 114.5 413.058 114.603C409.099 118.95 405.074 123.231 400.356 126.782C398.219 128.385 395.967 129.8 393.466 130.777C391.462 131.56 389.398 131.913 387.249 131.785C384.261 131.603 381.894 130.316 380.133 127.906C378.524 125.702 377.759 123.17 377.255 120.529C376.812 118.234 376.745 115.915 376.757 113.595C376.757 112.982 376.812 112.369 376.539 111.786C376.332 111.349 376.017 111.185 375.555 111.373C374.723 111.713 374.013 112.242 373.339 112.824C371.05 114.791 368.998 116.989 367.061 119.284C363.716 123.255 360.438 127.28 357.117 131.269C356.285 132.265 355.398 133.212 354.542 134.189C354.032 134.766 353.437 134.888 352.697 134.669C351.737 134.384 350.972 133.849 350.353 133.096C349.194 131.682 348.574 130.049 348.501 128.209C348.422 126.212 348.769 124.263 349.145 122.32C349.485 120.577 349.825 118.835 349.959 117.062C349.983 116.728 349.959 116.382 349.904 116.054C349.861 115.799 349.6 115.787 349.436 115.884C349.2 116.012 348.993 116.206 348.805 116.394C344.403 120.79 340.141 125.313 336.529 130.401C335.339 132.07 334.234 133.795 333.232 135.586C332.522 136.855 332.006 137.079 330.561 136.873C328.8 136.624 327.543 135.695 326.76 134.104C325.862 132.277 325.534 130.31 325.74 128.324C326.481 121.172 327.889 114.154 330.221 107.342C330.555 106.377 330.98 105.436 331.411 104.513C331.702 103.9 332.042 103.299 332.431 102.74C333.02 101.89 333.687 101.004 334.853 101.095C336.213 101.198 337.288 101.926 338.047 103.074C338.417 103.632 338.368 104.258 338.18 104.853C337.907 105.697 337.603 106.535 337.251 107.348C334.677 113.255 332.752 119.357 331.538 125.689C331.38 126.388 331.162 127.11 331.338 127.881Z" fill="#F83301"/>
<path d="M304.606 94.5134C305.201 93.9245 305.486 93.1473 305.875 92.437C307.66 89.1342 309.548 85.9043 311.649 82.7958C313.258 80.4219 314.976 78.133 317.04 76.1294C318.169 75.0305 319.377 74.0531 320.822 73.3792C322.255 72.7113 323.7 72.602 325.188 73.1484C327.525 74.0106 328.946 76.3116 328.648 78.8008C328.557 79.5415 328.466 80.2883 328.132 80.9804C327.829 81.6179 327.586 81.7576 326.851 81.7211C325.947 81.6786 325.303 81.2476 324.878 80.4765C324.744 80.2397 324.665 79.9726 324.562 79.7237C323.907 78.0723 323.858 78.0601 322.486 79.2865C321.108 80.519 319.948 81.9579 318.861 83.4393C316.239 87.0214 313.986 90.8281 311.91 94.7502C311.782 94.9869 311.721 95.2541 311.63 95.5091C311.303 96.0251 310.932 96.5169 310.659 97.0633C308.935 100.475 307.229 103.894 305.541 107.324C305.28 107.852 304.843 108.362 305.055 109.091C305.917 109.37 306.779 109.157 307.642 108.993C309.117 108.714 310.58 108.386 312.061 108.125C314.709 107.652 317.222 108.095 319.626 109.254C320.367 109.613 321.035 110.08 321.606 110.687C322.146 111.264 322.401 111.95 322.492 112.715C322.577 113.474 321.885 114.027 321.156 113.759C320.774 113.62 320.416 113.407 320.07 113.195C319.05 112.557 317.932 112.357 316.742 112.363C315.231 112.369 313.749 112.612 312.28 112.934C309.475 113.547 306.743 114.391 304.029 115.338C302.857 115.745 302.038 116.461 301.449 117.518C300.417 119.375 299.609 121.324 298.887 123.316C296.543 129.733 294.704 136.302 292.961 142.896C290.229 153.253 287.873 163.702 285.906 174.236C285.226 177.854 284.649 181.497 284.261 185.164C284.103 186.664 284.091 188.139 284.558 189.62C285.026 191.108 284.692 191.521 283.253 192.049C281.832 192.571 280.248 191.849 279.61 190.586C279.167 189.699 279.082 188.758 279.094 187.799C279.173 183.015 279.641 178.261 280.309 173.525C282.039 161.346 284.656 149.362 287.819 137.48C288.912 133.388 290.399 129.429 291.735 125.41C292.166 124.117 292.597 122.824 293.016 121.525C293.119 121.203 293.186 120.863 293.234 120.529C293.307 120.037 292.998 119.74 292.518 119.837C291.261 120.092 290.223 120.626 289.622 121.859C289.142 122.83 288.632 123.012 287.691 122.611C286.434 122.083 285.53 121.166 285.056 119.891C284.668 118.841 284.868 117.851 285.779 117.123C286.252 116.74 286.768 116.382 287.315 116.127C288.547 115.544 289.81 115.022 291.067 114.494C292.33 113.966 293.562 113.389 294.71 112.63C296.227 111.628 297.381 110.335 298.11 108.641C299.973 104.312 301.941 100.038 304.078 95.8369C304.29 95.418 304.43 94.9566 304.606 94.5134Z" fill="#FA3402"/>
<path d="M304.606 94.5134C304.254 94.2098 304.254 93.7969 304.254 93.3841C304.254 90.1724 304.229 86.9606 304.26 83.7489C304.278 82.0914 304.982 81.3811 306.609 81.3022C307.496 81.2597 308.388 81.3325 309.275 81.29C310.695 81.2232 311.211 80.695 311.315 79.2743C311.339 78.9344 311.327 78.5944 311.327 78.2483C311.327 71.4849 311.327 64.7214 311.321 57.958C311.321 56.3855 311.26 54.8191 310.835 53.2892C309.803 49.616 307.575 47.145 303.719 46.5075C299.658 45.8336 296.294 47.06 293.933 50.5692C292.682 52.427 292.166 54.5459 291.947 56.7437C291.868 57.5573 291.886 58.383 291.886 59.2026C291.899 65.5593 291.923 71.9099 291.941 78.2665C291.941 78.6733 291.923 79.0922 291.965 79.4929C292.087 80.6586 292.639 81.2111 293.805 81.2779C294.625 81.3265 295.444 81.29 296.264 81.3022C296.671 81.3083 297.09 81.2961 297.49 81.369C298.48 81.5632 299.02 82.1704 299.13 83.1964C299.178 83.67 299.16 84.1496 299.16 84.6292C299.16 87.1549 299.16 89.6866 299.16 92.2123C299.16 92.6919 299.184 93.1716 299.13 93.6452C298.996 94.8776 298.377 95.4544 297.132 95.5394C296.792 95.5637 296.452 95.5455 296.106 95.5455C286.817 95.5455 277.522 95.5455 268.233 95.5455C267.753 95.5455 267.273 95.5697 266.8 95.5151C265.968 95.4119 265.41 94.9383 265.246 94.1126C265.136 93.5844 265.106 93.0319 265.1 92.4855C265.088 89.7534 265.076 87.0213 265.1 84.2893C265.118 81.8486 265.683 81.3082 268.154 81.29C268.907 81.284 269.659 81.3386 270.406 81.3265C272.058 81.29 272.622 80.7315 272.683 79.1226C272.695 78.7826 272.683 78.4365 272.683 78.0965C272.683 68.6678 272.683 59.2391 272.683 49.8103C272.683 49.3975 272.701 48.9907 272.677 48.5778C272.604 47.2968 272.112 46.7443 270.795 46.6107C269.981 46.5257 269.155 46.5925 268.342 46.5621C267.729 46.5379 267.109 46.5318 266.514 46.4164C265.78 46.2707 265.312 45.779 265.197 45.0261C265.124 44.5586 265.1 44.0729 265.094 43.5994C265.088 40.8673 265.088 38.1352 265.094 35.4031C265.094 34.9963 265.1 34.5774 265.161 34.1767C265.337 33.0171 265.895 32.495 267.043 32.4039C267.449 32.3735 267.862 32.3857 268.269 32.3857C274.353 32.3857 280.43 32.3857 286.513 32.3857C286.926 32.3857 287.333 32.3675 287.74 32.4039C288.778 32.501 289.367 33.0353 289.476 34.0674C289.561 34.881 289.567 35.7067 289.579 36.5202C289.604 37.953 289.61 39.3859 289.64 40.8187C289.64 40.9219 289.749 41.0676 289.84 41.104C289.931 41.1405 290.12 41.104 290.18 41.0251C290.35 40.8126 290.478 40.5698 290.618 40.333C293.611 35.051 298.195 31.991 304.102 30.9589C308.4 30.2061 312.662 30.5035 316.809 32.0335C321.162 33.6424 324.356 36.5931 326.839 40.4119C327.136 40.8673 327.41 41.3348 327.659 41.7537C327.993 41.8205 328.053 41.614 328.138 41.4562C331.799 34.6867 337.616 31.2989 345.15 30.6493C348.38 30.37 351.561 30.7161 354.664 31.6814C358.993 33.0353 362.405 35.5974 365.015 39.307C367.826 43.2897 369.004 47.7886 369.441 52.5424C369.545 53.6292 369.544 54.7281 369.544 55.8209C369.538 62.8575 369.514 69.8942 369.508 76.9308C369.508 77.884 369.405 78.8433 369.678 79.7844C370.006 80.9075 370.395 81.2475 371.554 81.284C372.374 81.3082 373.193 81.2718 374.013 81.29C374.493 81.2961 374.978 81.3022 375.44 81.3993C376.369 81.5875 376.867 82.1522 376.976 83.075C377.006 83.3421 377 83.6214 377 83.8946C377 86.9667 377 90.0449 377 93.117C377 93.3234 377.006 93.5298 376.988 93.7301C376.885 94.8473 376.302 95.4362 375.154 95.5394C374.681 95.5819 374.201 95.5515 373.722 95.5576C364.633 95.5576 355.55 95.5576 346.461 95.5576C345.982 95.5576 345.502 95.5819 345.029 95.5394C343.93 95.4362 343.298 94.7987 343.183 93.7059C343.147 93.3659 343.159 93.0259 343.159 92.6798C343.159 89.8081 343.159 86.9424 343.159 84.0707C343.159 83.7975 343.146 83.5243 343.171 83.2511C343.268 82.1643 343.869 81.4843 344.962 81.3568C345.703 81.2718 346.461 81.3204 347.214 81.3083C347.694 81.2961 348.174 81.3143 348.647 81.2597C349.479 81.1565 350.025 80.6283 350.129 79.8208C350.183 79.414 350.165 79.0011 350.165 78.5944C350.165 71.2177 350.153 63.835 350.171 56.4584C350.177 54.0542 349.497 51.8867 348.125 49.9318C346.613 47.7825 344.5 46.6775 341.92 46.4164C340.76 46.3011 339.589 46.295 338.447 46.544C336.45 46.9872 334.786 48.0253 333.487 49.61C331.975 51.4556 331.137 53.5927 330.882 55.9545C330.804 56.7012 330.791 57.4541 330.791 58.2069C330.785 64.9704 330.785 71.7338 330.785 78.4972C330.785 78.904 330.767 79.3169 330.81 79.7237C330.907 80.6769 331.411 81.1868 332.4 81.2597C333.214 81.3204 334.04 81.2779 334.859 81.3083C335.333 81.3265 335.818 81.3325 336.28 81.4418C337.16 81.6543 337.694 82.2311 337.779 83.16C337.804 83.4332 337.804 83.7064 337.804 83.9796C337.804 86.9181 337.804 89.8566 337.804 92.7952C337.804 93.1352 337.816 93.4812 337.761 93.8151C337.603 94.7865 336.966 95.4058 336.001 95.5333C335.667 95.5758 335.321 95.5576 334.975 95.5576C327.458 95.5576 319.942 95.5576 312.426 95.5576C312.152 95.5576 311.879 95.5273 311.606 95.5091C311.697 95.2541 311.764 94.9869 311.885 94.7501C313.962 90.8281 316.214 87.0214 318.837 83.4393C319.924 81.9518 321.083 80.519 322.462 79.2865C323.834 78.0601 323.882 78.0723 324.538 79.7237C324.641 79.9787 324.72 80.2397 324.854 80.4765C325.285 81.2476 325.928 81.6786 326.827 81.7211C327.561 81.7575 327.798 81.6239 328.108 80.9804C328.442 80.2883 328.533 79.5415 328.624 78.8008C328.921 76.3116 327.501 74.0105 325.163 73.1484C323.676 72.5959 322.231 72.7113 320.798 73.3791C319.353 74.0531 318.139 75.0305 317.016 76.1294C314.951 78.139 313.233 80.4219 311.624 82.7957C309.524 85.9042 307.629 89.1402 305.85 92.4369C305.492 93.1473 305.207 93.9244 304.606 94.5134Z" fill="#FDFCFC"/>
<path d="M69.3731 20.2734C69.3731 23.3455 69.3184 26.4236 69.3913 29.4957C69.4399 31.73 68.7295 32.3068 66.6592 32.2885C61.4015 32.2339 56.1376 32.2824 50.8738 32.2642C48.7246 32.2582 48.1903 31.7664 48.1235 29.6354C48.0628 27.5165 48.1235 25.3976 48.1235 23.2848C48.1235 22.5319 48.0932 21.7852 48.0689 21.0323C48.0385 20.1823 47.5832 19.6541 46.806 19.3445C45.1546 18.6827 43.4365 18.2274 41.7061 17.851C38.6158 17.177 35.483 17.001 32.332 17.3045C29.8367 17.5474 27.5478 18.367 25.5443 19.9091C23.1886 21.7245 22.199 24.153 22.3205 27.0672C22.3933 28.8582 23.2069 30.3396 24.409 31.6207C25.3986 32.6771 26.5825 33.4846 27.8453 34.1767C30.6685 35.731 33.6738 36.8359 36.7337 37.8195C41.6697 39.4041 46.6542 40.8369 51.4991 42.6947C54.8202 43.9697 58.0501 45.4329 61.0311 47.3879C64.1457 49.4218 66.902 51.8442 68.9541 54.9952C71.4069 58.7594 72.5848 62.9001 72.7366 67.3685C72.9612 74.0166 71.3402 80.0879 67.1024 85.3335C64.0242 89.1463 60.0779 91.7813 55.5791 93.6027C50.7888 95.5455 45.78 96.5655 40.6376 96.8569C28.3068 97.5551 16.4313 95.4483 4.97473 90.8827C4.08831 90.5306 3.20191 90.1663 2.30943 89.8384C0.712677 89.2495 -0.167668 88.1992 0.0266139 86.4203C0.0326852 86.3535 0.0266139 86.2867 0.0266139 86.2139C0.0266139 79.9301 0.0630425 73.6402 0.00840073 67.3564C-0.00981318 65.1586 0.597319 64.0597 3.31119 64.1022C8.29574 64.1811 13.2863 64.1143 18.277 64.1265C21.1001 64.1325 21.6587 64.6668 21.683 67.4414C21.7072 69.6271 21.6708 71.8127 21.6587 73.9984C21.6587 74.5448 21.6769 75.0912 21.6708 75.6376C21.6587 76.4998 22.114 77.0401 22.8729 77.3558C23.1887 77.4894 23.5044 77.6108 23.8322 77.714C29.1567 79.499 34.6209 80.0879 40.2004 79.5779C41.694 79.4383 43.1572 79.0862 44.5839 78.5823C45.6221 78.218 46.5814 77.7201 47.5103 77.1312C51.8999 74.3445 52.0881 67.9514 49.0403 64.7336C47.6621 63.2765 46.0896 62.0986 44.3107 61.1879C41.3236 59.658 38.1969 58.4923 35.0034 57.4845C29.8003 55.8391 24.585 54.2181 19.5459 52.1113C16.1277 50.6846 12.8796 48.9603 9.94713 46.6836C6.41363 43.9394 3.71797 40.5516 2.21229 36.3138C-0.623012 28.3301 0.500173 17.256 7.06326 10.1707C9.89248 7.11687 13.3228 4.90692 17.1477 3.30409C22.7697 0.954499 28.6589 -0.041197 34.7363 0.0013021C46.2717 0.0741578 57.1455 2.90946 67.5152 7.85757C67.6367 7.91829 67.7642 7.97295 67.8856 8.02759C68.936 8.48294 69.5066 9.22971 69.3852 10.4258C69.3427 10.8325 69.3791 11.2454 69.3791 11.6521C69.3731 14.536 69.3731 17.4017 69.3731 20.2734Z" fill="#FDFDFD"/>
<path d="M162.41 32.3856C167.054 32.3856 171.705 32.3856 176.349 32.3856C176.896 32.3856 177.448 32.3613 177.989 32.416C178.905 32.507 179.488 33.0413 179.646 33.952C179.731 34.4195 179.737 34.9052 179.737 35.3788C179.743 38.1108 179.743 40.8429 179.737 43.5811C179.737 43.9211 179.743 44.2672 179.707 44.6072C179.567 45.8457 178.978 46.4346 177.734 46.5378C177.193 46.5803 176.641 46.5075 176.094 46.5561C174.443 46.7018 173.781 47.5578 174.188 49.1849C174.698 51.237 175.299 53.2648 175.876 55.2987C177.643 61.5339 179.415 67.7692 181.188 74.0044C181.322 74.4658 181.462 74.9212 181.613 75.3704C181.862 76.1111 182.421 76.439 183.168 76.4876C183.993 76.5422 184.576 76.1901 184.928 75.3644C185.171 74.7997 185.335 74.2048 185.517 73.6219C187.861 65.8506 190.198 58.0733 192.53 50.296C192.687 49.7738 192.839 49.2456 192.918 48.7053C193.082 47.6124 192.542 46.8414 191.437 46.635C190.908 46.5378 190.35 46.5925 189.81 46.55C189.336 46.5135 188.838 46.5075 188.401 46.3557C187.782 46.1432 187.393 45.6453 187.302 44.9896C187.235 44.5161 187.223 44.0364 187.223 43.5629C187.217 40.8308 187.217 38.0987 187.217 35.3606C187.217 35.0874 187.211 34.8141 187.229 34.5409C187.339 33.0049 187.879 32.4645 189.378 32.3917C189.785 32.3735 190.198 32.3856 190.611 32.3856C199.493 32.3856 208.376 32.3856 217.264 32.3856C217.744 32.3856 218.223 32.3674 218.697 32.3978C219.838 32.4767 220.439 33.0231 220.597 34.1463C220.652 34.547 220.646 34.9659 220.646 35.3727C220.652 38.1048 220.646 40.8369 220.646 43.575C220.646 43.915 220.652 44.2611 220.615 44.6011C220.5 45.8032 219.881 46.4407 218.648 46.5135C217.762 46.5682 216.875 46.5196 215.983 46.5257C215.37 46.5317 214.75 46.5135 214.143 46.5742C213.263 46.6592 212.607 47.0782 212.328 47.9767C212.146 48.5596 211.903 49.1303 211.703 49.7071C206.797 64.1082 201.891 78.5093 196.986 92.9105C196.919 93.1047 196.864 93.299 196.792 93.4933C196.16 95.2783 195.832 95.5333 193.987 95.5393C186.744 95.5515 179.5 95.5211 172.257 95.5575C170.108 95.5697 169.701 95.3268 169.003 93.2444C167.455 88.6545 165.949 84.0464 164.407 79.4565C161.007 69.2992 157.601 59.1419 154.189 48.9846C153.418 46.6896 153.206 46.5318 150.85 46.5135C149.69 46.5075 148.525 46.5682 147.365 46.5439C145.544 46.5075 144.979 45.9975 144.955 44.2368C144.918 41.0251 144.967 37.8134 144.937 34.6016C144.924 33.187 145.774 32.3492 147.225 32.3613C152.295 32.422 157.352 32.3917 162.41 32.3856Z" fill="#FEFEFE"/>
<path d="M408.947 42.3365C408.947 53.2041 408.947 64.0657 408.947 74.9334C408.947 76.2994 408.929 77.6715 408.996 79.0315C409.081 80.8043 409.609 81.2718 411.424 81.3204C412.104 81.3386 412.791 81.2839 413.477 81.29C413.95 81.2961 414.442 81.2779 414.903 81.3872C415.693 81.5693 416.239 82.0854 416.385 82.905C416.47 83.3725 416.476 83.8521 416.476 84.3317C416.482 87.0638 416.482 89.7959 416.482 92.5341C416.482 92.8073 416.494 93.0805 416.476 93.3537C416.367 94.8351 415.765 95.4422 414.314 95.5394C413.908 95.5637 413.495 95.5454 413.082 95.5454C403.854 95.5454 394.631 95.5454 385.403 95.5454C384.923 95.5454 384.444 95.5758 383.97 95.5211C382.993 95.4179 382.355 94.7926 382.191 93.8273C382.167 93.6937 382.161 93.5541 382.161 93.4205C382.161 90.142 382.13 86.8574 382.173 83.5789C382.191 82.0854 382.956 81.3871 384.48 81.29C384.887 81.2657 385.3 81.29 385.712 81.2961C386.259 81.3021 386.805 81.3386 387.352 81.3204C389.173 81.2657 389.677 80.78 389.762 79.0193C389.786 78.4729 389.768 77.9265 389.768 77.3801C389.768 64.3268 389.768 51.2735 389.768 38.2201C389.768 32.6163 389.768 27.0125 389.768 21.4087C389.768 20.9291 389.78 20.4494 389.762 19.9759C389.689 18.0938 389.185 17.5899 387.279 17.4927C386.805 17.4684 386.326 17.517 385.846 17.5352C385.439 17.5473 385.026 17.602 384.62 17.5838C382.865 17.4988 382.185 16.8188 382.167 15.0156C382.136 11.9435 382.155 8.86539 382.161 5.78724C382.161 5.44724 382.155 5.08905 382.252 4.77334C382.489 4.00228 382.98 3.45587 383.83 3.37087C384.304 3.3223 384.784 3.34048 385.263 3.34048C392.166 3.34048 399.069 3.34048 405.972 3.34048C406.385 3.34048 406.792 3.32229 407.199 3.35871C408.116 3.43764 408.717 3.92941 408.917 4.83404C409.02 5.29546 409.038 5.78118 409.038 6.25474C409.045 18.282 409.045 30.3092 409.045 42.3365C409.014 42.3365 408.978 42.3365 408.947 42.3365Z" fill="#FEFEFE"/>
<path d="M448.423 56.9683C448.423 64.0049 448.423 71.0416 448.423 78.0782C448.423 78.6247 448.411 79.1772 448.478 79.7114C448.599 80.6646 449.127 81.1928 450.08 81.2596C450.894 81.3142 451.72 81.2536 452.539 81.2778C453.153 81.2961 453.778 81.3082 454.367 81.4478C455.247 81.6603 455.775 82.2553 455.83 83.1903C455.854 83.5971 455.848 84.0099 455.848 84.4167C455.848 87.082 455.848 89.7473 455.848 92.4065C455.848 92.8861 455.879 93.3719 455.812 93.8394C455.672 94.8168 455.029 95.4179 454.039 95.5272C453.632 95.5697 453.219 95.5514 452.813 95.5514C443.384 95.5514 433.961 95.5514 424.532 95.5514C424.126 95.5514 423.707 95.5757 423.306 95.5211C422.359 95.3997 421.715 94.7379 421.576 93.7726C421.539 93.5054 421.545 93.2262 421.545 92.9529C421.545 90.0144 421.545 87.0759 421.545 84.1435C421.545 83.937 421.539 83.7306 421.551 83.5303C421.661 82.0428 422.371 81.3507 423.907 81.2839C424.654 81.2535 425.407 81.3203 426.159 81.3264C428.643 81.3446 429.189 80.8468 429.189 78.3575C429.201 68.7284 429.201 59.0933 429.189 49.4642C429.183 47.066 428.539 46.4892 426.081 46.5439C425.127 46.5621 424.168 46.6653 423.221 46.4832C422.165 46.2768 421.679 45.7546 421.564 44.7043C421.527 44.3643 421.545 44.0243 421.545 43.6782C421.545 40.8793 421.545 38.0744 421.545 35.2755C421.545 34.9355 421.527 34.5895 421.564 34.2495C421.679 33.1384 422.304 32.507 423.391 32.4038C423.798 32.3674 424.211 32.3856 424.617 32.3856C431.514 32.3856 438.417 32.3856 445.314 32.3856C445.588 32.3856 445.861 32.3795 446.134 32.3917C447.731 32.4524 448.314 33.017 448.435 34.632C448.472 35.1055 448.447 35.5852 448.447 36.0648C448.447 43.0347 448.447 49.9984 448.447 56.9683C448.435 56.9683 448.429 56.9683 448.423 56.9683Z" fill="#FDFCFC"/>
<path d="M252.557 56.9015C252.557 63.8714 252.557 70.8413 252.557 77.8111C252.557 78.4243 252.532 79.0436 252.605 79.6507C252.733 80.6828 253.328 81.2232 254.372 81.2718C255.258 81.3143 256.151 81.2657 257.037 81.2839C257.511 81.296 258.003 81.3082 258.458 81.4175C259.514 81.6664 259.964 82.1824 259.97 83.2935C259.994 86.7116 260.006 90.1237 259.97 93.5419C259.957 94.8836 259.302 95.4665 257.911 95.5514C257.505 95.5757 257.092 95.5575 256.679 95.5575C247.457 95.5575 238.234 95.5575 229.006 95.5575C228.526 95.5575 228.047 95.5879 227.573 95.5393C226.553 95.4361 225.982 94.9079 225.776 93.8818C225.697 93.4811 225.673 93.0683 225.673 92.6615C225.667 89.8627 225.649 87.0577 225.673 84.2588C225.697 81.9092 226.262 81.3507 228.581 81.3143C229.534 81.2961 230.493 81.3628 231.447 81.3082C232.582 81.2475 233.183 80.6221 233.28 79.5111C233.317 79.1043 233.292 78.6914 233.292 78.2847C233.292 68.7223 233.292 59.154 233.292 49.5917C233.292 49.1788 233.311 48.7721 233.274 48.3653C233.189 47.4424 232.691 46.8474 231.781 46.6592C231.252 46.55 230.7 46.5621 230.153 46.55C229.334 46.5317 228.508 46.5924 227.695 46.5317C226.395 46.4285 225.897 45.9307 225.721 44.6193C225.667 44.2125 225.667 43.7997 225.667 43.3929C225.661 40.7944 225.667 38.2019 225.667 35.6034C225.667 35.4637 225.661 35.3302 225.667 35.1905C225.764 32.9502 226.286 32.4099 228.478 32.4099C235.581 32.3977 242.691 32.3977 249.794 32.4099C252.047 32.4159 252.544 32.9138 252.55 35.1905C252.563 42.4336 252.557 49.6767 252.557 56.9197C252.563 56.9015 252.557 56.9015 252.557 56.9015Z" fill="#FDFCFC"/>
<path d="M232.072 13.2793C232.036 7.33551 236.808 2.52702 242.818 2.4481C248.75 2.36917 253.765 7.20191 253.716 13.1336C253.662 19.6724 248.707 24.2137 242.958 24.2137C236.498 24.2137 231.975 18.871 232.072 13.2793Z" fill="#FDFCFC"/>
<path d="M427.957 13.34C427.683 7.5844 432.789 2.49664 438.454 2.44807C445.764 2.39343 449.516 8.30079 449.528 13.2064C449.546 19.4781 444.695 24.1287 438.903 24.2258C432.771 24.323 427.708 19.1017 427.957 13.34Z" fill="#FDFCFC"/>
<path d="M144.603 57.4844C143.121 48.8935 138.774 42.0693 131.428 37.358C121.477 30.977 110.725 29.5503 99.4321 32.9684C91.3937 35.397 85.3892 40.4604 81.5643 47.9464C77.794 55.3351 77.0776 63.1853 78.3951 71.2905C81.2425 83.081 88.2609 91.2591 99.7478 95.2297C107.889 98.0407 116.153 97.6703 124.276 94.8472C130.529 92.6737 135.605 88.9034 139.339 83.3967C139.794 82.7228 140.25 82.0246 140.577 81.2778C141.112 80.0454 140.717 79.1711 139.466 78.6611C138.835 78.4061 138.179 78.1997 137.523 78.0115C134.634 77.1918 131.744 76.3904 128.848 75.589C126.413 74.9151 126.261 74.9698 124.877 77.1433C123.59 79.159 121.884 80.7193 119.698 81.6543C113.815 84.1799 108.096 83.7549 102.674 80.3489C100.1 78.7279 98.4121 76.354 97.5014 73.4398C97.38 73.0512 97.2586 72.6505 97.21 72.2498C97.0643 71.0416 97.635 70.2523 98.8189 70.058C99.3532 69.973 99.9057 69.9791 100.452 69.9791C107.216 69.973 113.985 69.973 120.748 69.973C120.748 69.9852 120.748 69.9974 120.748 70.0095C127.585 70.0095 134.415 70.0095 141.251 70.0095C141.658 70.0095 142.071 70.0277 142.478 69.9852C143.71 69.8698 144.105 69.5238 144.469 68.2913C144.548 68.0302 144.627 67.7631 144.657 67.496C145.003 64.1567 145.173 60.7993 144.603 57.4844ZM124.203 55.7358C115.667 55.7419 107.131 55.7419 98.5943 55.7358C98.1875 55.7358 97.7686 55.7601 97.3679 55.6994C97.0886 55.6569 96.9125 55.4444 96.9915 55.1044C97.4408 53.2102 98.2847 51.5102 99.5293 50.0227C102.401 46.5742 106.123 44.7771 110.579 44.6071C115.576 44.4128 119.82 46.0946 123.086 49.9802C124.416 51.5648 125.314 53.3802 125.806 55.669C125.15 55.6933 124.677 55.7358 124.203 55.7358Z" fill="#FDFDFD"/>
</svg>
