<svg width="206" height="120" viewBox="0 0 206 120" fill="none" xmlns="http://www.w3.org/2000/svg">
<path d="M157.732 95.0893C158.026 95.0776 158.124 94.8284 158.265 94.6592C159.025 93.7424 159.767 92.8139 160.522 91.8924C161.547 90.6442 162.579 89.4054 163.728 88.27C164.142 87.861 164.572 87.4661 165.049 87.1323C165.905 86.5352 166.859 86.7068 167.459 87.5672C167.63 87.8116 167.725 88.0749 167.729 88.3805C167.739 88.9964 167.626 89.5911 167.471 90.1811C167.212 91.1519 166.939 92.1181 166.693 93.0913C166.615 93.3968 166.596 93.7165 166.561 94.0315C166.556 94.0668 166.603 94.1303 166.641 94.1444C166.681 94.1608 166.756 94.1514 166.782 94.1232C167.038 93.8576 167.299 93.5943 167.536 93.3122C168.352 92.339 169.151 91.3518 169.972 90.3856C170.846 89.356 171.751 88.3593 172.776 87.4731C173.197 87.1088 173.634 86.7679 174.13 86.5094C174.415 86.3613 174.706 86.2508 175.033 86.2343C175.82 86.192 176.42 86.4976 176.824 87.1769C177.167 87.7552 177.313 88.397 177.414 89.0551C177.6 90.261 177.572 91.481 177.706 92.6916C177.748 93.0842 177.802 93.4791 177.872 93.867C177.91 94.0715 177.981 94.2783 178.07 94.4664C178.314 94.9812 178.658 95.1599 179.226 95.087C180.028 94.9836 180.747 94.6592 181.431 94.2431C182.315 93.7071 183.14 93.0866 183.918 92.4072C184.835 91.608 185.735 90.7876 186.647 89.986C187.005 89.6734 187.367 89.3607 187.755 89.0857C188.321 88.6814 188.657 88.7143 189.163 89.1797C189.278 89.2855 189.379 89.4101 189.478 89.5347C189.551 89.6264 189.539 89.7298 189.468 89.8238C189.438 89.8661 189.407 89.9084 189.372 89.9484C187.839 91.6315 186.281 93.2887 184.454 94.6639C183.627 95.2844 182.755 95.8322 181.786 96.2106C181.011 96.5139 180.211 96.6502 179.379 96.6008C178.223 96.5303 177.306 96.032 176.624 95.0987C176.001 94.2454 175.705 93.2652 175.51 92.2427C175.338 91.3541 175.313 90.4561 175.317 89.5582C175.317 89.3208 175.338 89.0833 175.233 88.8577C175.153 88.6884 175.03 88.625 174.852 88.6978C174.53 88.8295 174.255 89.034 173.994 89.2597C173.108 90.0213 172.313 90.8722 171.563 91.7608C170.268 93.2981 168.999 94.8566 167.713 96.401C167.391 96.7865 167.048 97.1532 166.716 97.5317C166.519 97.755 166.288 97.802 166.001 97.7174C165.63 97.6069 165.334 97.4 165.094 97.1086C164.645 96.5609 164.405 95.9285 164.377 95.2163C164.347 94.4429 164.481 93.6883 164.626 92.9361C164.758 92.2615 164.89 91.5868 164.941 90.9004C164.951 90.7711 164.941 90.6372 164.92 90.5102C164.904 90.4115 164.803 90.4068 164.739 90.4444C164.647 90.4938 164.568 90.569 164.495 90.6419C162.79 92.3437 161.14 94.095 159.742 96.0649C159.281 96.7113 158.853 97.3789 158.465 98.0723C158.19 98.5636 157.99 98.6506 157.431 98.5707C156.749 98.4743 156.263 98.1147 155.959 97.4988C155.611 96.7912 155.485 96.0296 155.564 95.2609C155.851 92.4918 156.397 89.7744 157.299 87.137C157.429 86.7632 157.593 86.3989 157.76 86.0416C157.873 85.8042 158.004 85.5714 158.155 85.3552C158.383 85.0261 158.641 84.6829 159.093 84.7181C159.619 84.7581 160.035 85.0402 160.329 85.4845C160.473 85.7007 160.454 85.9428 160.381 86.1732C160.275 86.5 160.158 86.8243 160.021 87.1393C159.025 89.4265 158.279 91.789 157.809 94.2407C157.748 94.5111 157.661 94.7885 157.732 95.0893Z" fill="#F83301"/>
<path d="M147.382 82.17C147.612 81.942 147.722 81.6411 147.873 81.366C148.564 80.0873 149.295 78.8367 150.108 77.6332C150.731 76.714 151.397 75.8278 152.196 75.0521C152.633 74.6266 153.101 74.2482 153.66 73.9873C154.215 73.7287 154.775 73.6864 155.35 73.8979C156.255 74.2317 156.806 75.1226 156.69 76.0864C156.655 76.3732 156.62 76.6623 156.491 76.9303C156.373 77.1771 156.279 77.2312 155.995 77.2171C155.644 77.2006 155.395 77.0337 155.231 76.7352C155.179 76.6435 155.148 76.5401 155.108 76.4437C154.854 75.8043 154.836 75.7996 154.304 76.2745C153.771 76.7517 153.322 77.3088 152.901 77.8823C151.886 79.2692 151.013 80.7431 150.209 82.2616C150.16 82.3533 150.137 82.4568 150.101 82.5555C149.974 82.7553 149.831 82.9457 149.725 83.1573C149.058 84.4783 148.397 85.8018 147.744 87.1299C147.643 87.3344 147.473 87.5319 147.556 87.814C147.889 87.9221 148.223 87.8398 148.557 87.7763C149.128 87.6682 149.695 87.5413 150.268 87.4402C151.293 87.2568 152.266 87.4284 153.197 87.8774C153.484 88.0161 153.743 88.1971 153.964 88.4322C154.173 88.6555 154.271 88.9211 154.307 89.2173C154.34 89.5111 154.072 89.7251 153.79 89.6216C153.641 89.5676 153.503 89.4853 153.369 89.403C152.974 89.1562 152.541 89.0786 152.081 89.081C151.495 89.0833 150.922 89.1773 150.353 89.3019C149.267 89.5394 148.209 89.8661 147.158 90.2328C146.705 90.3903 146.387 90.6677 146.159 91.0767C145.76 91.796 145.447 92.5506 145.167 93.3216C144.26 95.8063 143.548 98.3497 142.873 100.903C141.815 104.913 140.903 108.958 140.142 113.037C139.878 114.438 139.655 115.848 139.505 117.268C139.443 117.849 139.439 118.42 139.62 118.993C139.801 119.569 139.671 119.729 139.114 119.934C138.564 120.136 137.951 119.856 137.704 119.367C137.532 119.024 137.499 118.66 137.504 118.288C137.535 116.436 137.716 114.595 137.974 112.762C138.644 108.046 139.657 103.406 140.882 98.8057C141.305 97.2214 141.881 95.6887 142.398 94.1326C142.565 93.6319 142.732 93.1312 142.894 92.6281C142.934 92.5036 142.96 92.3719 142.979 92.2426C143.007 92.0522 142.887 91.937 142.701 91.9747C142.215 92.0734 141.813 92.2802 141.58 92.7574C141.394 93.1335 141.197 93.2041 140.833 93.0489C140.346 92.8444 139.996 92.4894 139.812 91.9958C139.662 91.5891 139.74 91.206 140.092 90.9239C140.276 90.7758 140.475 90.6371 140.687 90.5384C141.164 90.3127 141.653 90.1106 142.14 89.9061C142.629 89.7016 143.106 89.4782 143.55 89.1844C144.138 88.7965 144.584 88.2958 144.866 87.64C145.588 85.964 146.35 84.3091 147.177 82.6824C147.257 82.5179 147.313 82.3416 147.382 82.17Z" fill="#FA3402"/>
<path d="M147.382 82.17C147.245 82.0525 147.245 81.8926 147.245 81.7328C147.245 80.4893 147.236 79.2458 147.248 78.0023C147.255 77.3605 147.527 77.0855 148.157 77.0549C148.5 77.0385 148.846 77.0667 149.189 77.0502C149.739 77.0244 149.939 76.8199 149.979 76.2698C149.988 76.1382 149.984 76.0065 149.984 75.8726C149.984 73.2539 149.984 70.6352 149.981 68.0166C149.981 67.4078 149.958 66.8013 149.793 66.2089C149.394 64.7868 148.531 63.83 147.038 63.5832C145.466 63.3223 144.163 63.7971 143.249 65.1558C142.765 65.8751 142.563 66.6955 142.48 67.5465C142.45 67.8614 142.457 68.1811 142.457 68.4985C142.462 70.9596 142.471 73.4184 142.478 75.8796C142.478 76.0371 142.471 76.1993 142.487 76.3544C142.534 76.8058 142.748 77.0197 143.2 77.0455C143.517 77.0643 143.834 77.0502 144.152 77.0549C144.309 77.0573 144.471 77.0526 144.627 77.0808C145.01 77.156 145.219 77.3911 145.261 77.7884C145.28 77.9717 145.273 78.1574 145.273 78.3431C145.273 79.321 145.273 80.3012 145.273 81.2791C145.273 81.4648 145.282 81.6505 145.261 81.8339C145.209 82.3111 144.97 82.5344 144.488 82.5673C144.356 82.5767 144.225 82.5696 144.091 82.5696C140.494 82.5696 136.895 82.5696 133.299 82.5696C133.113 82.5696 132.927 82.579 132.744 82.5579C132.422 82.5179 132.206 82.3346 132.142 82.0149C132.1 81.8104 132.088 81.5965 132.086 81.3849C132.081 80.3271 132.076 79.2693 132.086 78.2115C132.093 77.2665 132.311 77.0573 133.268 77.0502C133.56 77.0479 133.851 77.0691 134.14 77.0644C134.78 77.0502 134.998 76.834 135.022 76.2111C135.026 76.0794 135.022 75.9454 135.022 75.8138C135.022 72.1632 135.022 68.5126 135.022 64.862C135.022 64.7021 135.029 64.5446 135.019 64.3848C134.991 63.8888 134.801 63.6749 134.291 63.6232C133.976 63.5903 133.656 63.6161 133.341 63.6044C133.103 63.595 132.864 63.5926 132.633 63.5479C132.349 63.4915 132.168 63.3011 132.123 63.0096C132.095 62.8286 132.086 62.6406 132.083 62.4572C132.081 61.3994 132.081 60.3416 132.083 59.2838C132.083 59.1263 132.086 58.9641 132.109 58.809C132.177 58.36 132.394 58.1578 132.838 58.1226C132.995 58.1108 133.155 58.1155 133.313 58.1155C135.668 58.1155 138.021 58.1155 140.376 58.1155C140.534 58.1155 140.694 58.1085 140.851 58.1226C141.253 58.1602 141.481 58.367 141.524 58.7667C141.557 59.0817 141.559 59.4014 141.564 59.7163C141.573 60.2711 141.575 60.8259 141.587 61.3806C141.587 61.4206 141.629 61.477 141.665 61.4911C141.7 61.5052 141.773 61.4911 141.796 61.4605C141.862 61.3783 141.911 61.2842 141.966 61.1926C143.124 59.1475 144.899 57.9627 147.186 57.5631C148.851 57.2716 150.501 57.3868 152.106 57.9792C153.792 58.6021 155.028 59.7445 155.99 61.2231C156.105 61.3994 156.211 61.5804 156.307 61.7426C156.436 61.7685 156.46 61.6886 156.493 61.6274C157.91 59.0064 160.162 57.6947 163.079 57.4432C164.33 57.3351 165.562 57.4691 166.763 57.8428C168.439 58.367 169.76 59.359 170.771 60.7953C171.859 62.3373 172.315 64.0792 172.484 65.9198C172.524 66.3405 172.524 66.766 172.524 67.1891C172.522 69.9136 172.513 72.638 172.51 75.3625C172.51 75.7315 172.47 76.1029 172.576 76.4673C172.703 76.9021 172.853 77.0338 173.302 77.0479C173.62 77.0573 173.937 77.0432 174.254 77.0502C174.44 77.0526 174.628 77.0549 174.807 77.0926C175.167 77.1654 175.359 77.384 175.402 77.7414C175.413 77.8448 175.411 77.9529 175.411 78.0587C175.411 79.2481 175.411 80.4399 175.411 81.6294C175.411 81.7093 175.413 81.7892 175.406 81.8668C175.366 82.2993 175.141 82.5273 174.696 82.5673C174.513 82.5837 174.327 82.572 174.142 82.572C170.623 82.572 167.106 82.572 163.587 82.572C163.401 82.572 163.216 82.5814 163.032 82.5649C162.607 82.525 162.362 82.2782 162.318 81.855C162.304 81.7234 162.308 81.5918 162.308 81.4578C162.308 80.3459 162.308 79.2364 162.308 78.1245C162.308 78.0187 162.304 77.9129 162.313 77.8072C162.351 77.3864 162.583 77.1231 163.006 77.0738C163.293 77.0408 163.587 77.0596 163.879 77.0549C164.064 77.0502 164.25 77.0573 164.433 77.0361C164.755 76.9962 164.967 76.7917 165.007 76.479C165.028 76.3215 165.021 76.1617 165.021 76.0042C165.021 73.1481 165.016 70.2897 165.023 67.4336C165.026 66.5027 164.762 65.6636 164.231 64.9066C163.646 64.0745 162.828 63.6467 161.829 63.5456C161.38 63.5009 160.926 63.4986 160.484 63.595C159.711 63.7666 159.067 64.1685 158.564 64.7821C157.978 65.4967 157.654 66.3241 157.555 67.2385C157.525 67.5276 157.52 67.8191 157.52 68.1106C157.518 70.7293 157.518 73.3479 157.518 75.9666C157.518 76.1241 157.511 76.2839 157.527 76.4414C157.565 76.8105 157.76 77.0079 158.143 77.0361C158.458 77.0597 158.778 77.0432 159.095 77.0549C159.278 77.062 159.466 77.0644 159.645 77.1067C159.986 77.1889 160.193 77.4123 160.226 77.7719C160.235 77.8777 160.235 77.9835 160.235 78.0892C160.235 79.227 160.235 80.3647 160.235 81.5024C160.235 81.6341 160.24 81.7681 160.219 81.8973C160.157 82.2735 159.911 82.5132 159.537 82.5626C159.408 82.5791 159.274 82.572 159.14 82.572C156.229 82.572 153.319 82.572 150.409 82.572C150.303 82.572 150.198 82.5602 150.092 82.5532C150.127 82.4545 150.153 82.351 150.2 82.2593C151.004 80.7408 151.876 79.2669 152.891 77.88C153.312 77.3041 153.761 76.7494 154.295 76.2722C154.826 75.7973 154.845 75.802 155.099 76.4414C155.139 76.5401 155.169 76.6412 155.221 76.7329C155.388 77.0314 155.637 77.1983 155.985 77.2148C156.269 77.2289 156.361 77.1772 156.481 76.928C156.61 76.66 156.646 76.3709 156.681 76.0841C156.796 75.1203 156.246 74.2294 155.341 73.8956C154.765 73.6817 154.206 73.7264 153.651 73.985C153.091 74.2459 152.621 74.6243 152.186 75.0498C151.387 75.8279 150.722 76.7117 150.099 77.6309C149.286 78.8344 148.552 80.0873 147.863 81.3637C147.722 81.6411 147.612 81.942 147.382 82.17Z" fill="#FDFCFC"/>
<path d="M56.3045 53.4259C56.3045 54.6153 56.2833 55.8071 56.3115 56.9966C56.3327 57.8616 56.0553 58.0849 55.2537 58.0779C53.2157 58.0567 51.18 58.0755 49.1419 58.0685C48.3098 58.0661 48.1029 57.8757 48.0771 57.0506C48.0536 56.2302 48.0771 55.4099 48.0771 54.5918C48.0771 54.3003 48.0653 54.0112 48.0559 53.7197C48.0442 53.3906 47.8679 53.1861 47.567 53.0662C46.9276 52.81 46.2624 52.6337 45.5924 52.488C44.3959 52.227 43.183 52.1589 41.963 52.2764C40.9968 52.3704 40.1106 52.6878 39.3349 53.2848C38.4228 53.9877 38.0397 54.928 38.0867 56.0563C38.1149 56.7497 38.4299 57.3233 38.8953 57.8193C39.2785 58.2283 39.7369 58.541 40.2258 58.8089C41.3189 59.4107 42.4825 59.8385 43.6672 60.2193C45.5783 60.8329 47.5082 61.3876 49.3841 62.1069C50.6699 62.6006 51.9205 63.1671 53.0746 63.924C54.2805 64.7115 55.3477 65.6494 56.1423 66.8694C57.0919 68.3268 57.548 69.93 57.6067 71.6601C57.6937 74.2341 57.0661 76.5848 55.4253 78.6158C54.2335 80.092 52.7056 81.1122 50.9637 81.8174C49.109 82.5696 47.1697 82.9645 45.1787 83.0774C40.4045 83.3477 35.8065 82.532 31.3708 80.7643C31.0276 80.6279 30.6844 80.4869 30.3389 80.36C29.7206 80.1319 29.3798 79.7253 29.455 79.0365C29.4574 79.0107 29.455 78.9848 29.455 78.9566C29.455 76.5237 29.4691 74.0884 29.448 71.6554C29.4409 70.8045 29.676 70.379 30.7267 70.3954C32.6566 70.426 34.5889 70.4001 36.5211 70.4048C37.6142 70.4072 37.8305 70.6141 37.8399 71.6883C37.8493 72.5346 37.8352 73.3808 37.8305 74.227C37.8305 74.4386 37.8375 74.6502 37.8352 74.8617C37.8305 75.1955 38.0068 75.4047 38.3006 75.527C38.4228 75.5787 38.5451 75.6257 38.672 75.6657C40.7336 76.3568 42.8492 76.5848 45.0095 76.3873C45.5877 76.3333 46.1542 76.1969 46.7066 76.0018C47.1086 75.8608 47.48 75.668 47.8397 75.44C49.5392 74.361 49.6121 71.8858 48.432 70.6399C47.8984 70.0757 47.2896 69.6197 46.6009 69.2671C45.4443 68.6747 44.2337 68.2234 42.9973 67.8332C40.9827 67.1962 38.9635 66.5685 37.0124 65.7528C35.689 65.2004 34.4314 64.5328 33.296 63.6513C31.9279 62.5888 30.8842 61.2772 30.3013 59.6364C29.2035 56.5452 29.6384 52.2576 32.1794 49.5144C33.2749 48.332 34.603 47.4763 36.0839 46.8557C38.2607 45.946 40.5408 45.5605 42.8938 45.577C47.3601 45.6052 51.5702 46.7029 55.5852 48.6187C55.6322 48.6423 55.6815 48.6634 55.7286 48.6846C56.1352 48.8609 56.3562 49.15 56.3092 49.6131C56.2927 49.7706 56.3068 49.9304 56.3068 50.0879C56.3045 51.2021 56.3045 52.314 56.3045 53.4259Z" fill="#FDFDFD"/>
<path d="M92.3263 58.1155C94.1246 58.1155 95.9252 58.1155 97.7235 58.1155C97.9351 58.1155 98.149 58.1061 98.3582 58.1273C98.7131 58.1625 98.9388 58.3694 98.9999 58.722C99.0328 58.903 99.0352 59.0911 99.0352 59.2744C99.0375 60.3322 99.0375 61.39 99.0352 62.4502C99.0352 62.5818 99.0375 62.7158 99.0234 62.8474C98.9694 63.327 98.7413 63.555 98.2595 63.595C98.0502 63.6114 97.8363 63.5832 97.6248 63.602C96.9854 63.6584 96.7292 63.9899 96.8867 64.6199C97.0841 65.4144 97.3168 66.1995 97.5401 66.987C98.2242 69.4011 98.9106 71.8153 99.597 74.2294C99.6487 74.4081 99.7028 74.5844 99.7615 74.7583C99.8579 75.0451 100.074 75.172 100.363 75.1908C100.683 75.212 100.909 75.0757 101.045 74.756C101.139 74.5374 101.203 74.307 101.273 74.0813C102.18 71.0725 103.085 68.0612 103.988 65.05C104.049 64.8479 104.108 64.6433 104.139 64.4341C104.202 64.011 103.993 63.7125 103.565 63.6326C103.36 63.595 103.144 63.6161 102.935 63.5997C102.752 63.5855 102.559 63.5832 102.39 63.5244C102.15 63.4422 101.999 63.2494 101.964 62.9955C101.938 62.8122 101.934 62.6265 101.934 62.4431C101.931 61.3853 101.931 60.3275 101.931 59.2674C101.931 59.1616 101.929 59.0558 101.936 58.95C101.978 58.3553 102.187 58.1461 102.768 58.1179C102.926 58.1108 103.085 58.1155 103.245 58.1155C106.684 58.1155 110.123 58.1155 113.565 58.1155C113.75 58.1155 113.936 58.1085 114.119 58.1202C114.561 58.1508 114.794 58.3623 114.855 58.7972C114.876 58.9524 114.874 59.1146 114.874 59.2721C114.876 60.3299 114.874 61.3877 114.874 62.4478C114.874 62.5795 114.876 62.7135 114.862 62.8451C114.818 63.3105 114.578 63.5573 114.101 63.5855C113.757 63.6067 113.414 63.5879 113.069 63.5903C112.831 63.5926 112.592 63.5856 112.356 63.6091C112.016 63.642 111.762 63.8042 111.654 64.1521C111.583 64.3777 111.489 64.5987 111.412 64.822C109.512 70.3978 107.613 75.9736 105.713 81.5494C105.688 81.6247 105.666 81.6999 105.638 81.7751C105.394 82.4662 105.267 82.5649 104.552 82.5673C101.748 82.572 98.9435 82.5602 96.1391 82.5743C95.307 82.579 95.1495 82.485 94.8792 81.6787C94.2798 79.9016 93.6968 78.1174 93.0997 76.3403C91.7833 72.4076 90.4646 68.475 89.1435 64.5423C88.845 63.6537 88.7627 63.5926 87.8506 63.5855C87.4017 63.5832 86.9503 63.6067 86.5014 63.5973C85.7962 63.5832 85.5775 63.3857 85.5681 62.704C85.554 61.4605 85.5728 60.217 85.5611 58.9735C85.5564 58.4258 85.8855 58.1014 86.4473 58.1061C88.4101 58.1273 90.3682 58.1155 92.3263 58.1155Z" fill="#FEFEFE"/>
<path d="M187.778 61.9659C187.778 66.1737 187.778 70.379 187.778 74.5867C187.778 75.1156 187.771 75.6469 187.797 76.1734C187.83 76.8598 188.034 77.0408 188.737 77.0597C189 77.0667 189.266 77.0456 189.532 77.0479C189.715 77.0503 189.905 77.0432 190.084 77.0855C190.39 77.156 190.601 77.3558 190.658 77.6732C190.691 77.8542 190.693 78.0399 190.693 78.2256C190.695 79.2834 190.695 80.3412 190.695 81.4014C190.695 81.5071 190.7 81.6129 190.693 81.7187C190.651 82.2923 190.418 82.5297 189.856 82.5649C189.699 82.5743 189.539 82.5673 189.379 82.5673C185.806 82.5673 182.235 82.5673 178.662 82.5673C178.476 82.5673 178.291 82.5791 178.107 82.5579C177.729 82.5179 177.482 82.2758 177.419 81.9021C177.409 81.8503 177.407 81.7963 177.407 81.7446C177.407 80.4752 177.395 79.2035 177.412 77.9341C177.419 77.3558 177.715 77.0855 178.305 77.0479C178.462 77.0385 178.622 77.0479 178.782 77.0503C178.994 77.0526 179.205 77.0667 179.417 77.0597C180.122 77.0385 180.317 76.8504 180.35 76.1687C180.359 75.9572 180.352 75.7456 180.352 75.5341C180.352 70.4801 180.352 65.4261 180.352 60.3722C180.352 58.2025 180.352 56.0328 180.352 53.8632C180.352 53.6774 180.357 53.4917 180.35 53.3084C180.322 52.5797 180.127 52.3846 179.388 52.347C179.205 52.3376 179.019 52.3564 178.834 52.3634C178.676 52.3681 178.516 52.3893 178.359 52.3822C177.679 52.3493 177.416 52.086 177.409 51.3879C177.397 50.1984 177.404 49.0067 177.407 47.8149C177.407 47.6832 177.404 47.5445 177.442 47.4223C177.534 47.1237 177.724 46.9122 178.053 46.8793C178.237 46.8605 178.422 46.8675 178.608 46.8675C181.281 46.8675 183.953 46.8675 186.626 46.8675C186.786 46.8675 186.944 46.8605 187.101 46.8746C187.456 46.9051 187.689 47.0955 187.766 47.4458C187.806 47.6245 187.813 47.8125 187.813 47.9959C187.816 52.6525 187.816 57.3092 187.816 61.9659C187.804 61.9659 187.792 61.9659 187.778 61.9659Z" fill="#FEFEFE"/>
<path d="M203.065 67.6334C203.065 70.3579 203.065 73.0823 203.065 75.8067C203.065 76.0183 203.06 76.2322 203.086 76.4391C203.133 76.8081 203.337 77.0127 203.706 77.0385C204.021 77.0597 204.341 77.0362 204.658 77.0456C204.896 77.0526 205.138 77.0573 205.366 77.1114C205.707 77.1937 205.911 77.424 205.932 77.786C205.942 77.9435 205.939 78.1034 205.939 78.2609C205.939 79.2928 205.939 80.3248 205.939 81.3544C205.939 81.5401 205.951 81.7281 205.925 81.9091C205.871 82.2876 205.622 82.5203 205.239 82.5626C205.081 82.5791 204.922 82.572 204.764 82.572C201.113 82.572 197.465 82.572 193.815 82.572C193.657 82.572 193.495 82.5814 193.34 82.5603C192.973 82.5132 192.724 82.257 192.67 81.8833C192.656 81.7798 192.658 81.6717 192.658 81.5659C192.658 80.4282 192.658 79.2905 192.658 78.1551C192.658 78.0752 192.656 77.9952 192.66 77.9177C192.703 77.3418 192.978 77.0738 193.575 77.0479C193.864 77.0362 194.155 77.062 194.447 77.0644C195.408 77.0714 195.62 76.8787 195.62 75.9149C195.625 72.1867 195.625 68.4562 195.62 64.728C195.618 63.7995 195.368 63.5762 194.416 63.5973C194.047 63.6044 193.676 63.6443 193.309 63.5738C192.9 63.4939 192.712 63.2917 192.667 62.8851C192.653 62.7534 192.66 62.6218 192.66 62.4878C192.66 61.4041 192.66 60.3181 192.66 59.2345C192.66 59.1028 192.653 58.9688 192.667 58.8372C192.712 58.407 192.954 58.1626 193.375 58.1226C193.532 58.1085 193.692 58.1156 193.85 58.1156C196.52 58.1156 199.193 58.1156 201.863 58.1156C201.969 58.1156 202.075 58.1132 202.181 58.1179C202.799 58.1414 203.025 58.36 203.072 58.9853C203.086 59.1686 203.076 59.3544 203.076 59.5401C203.076 62.2386 203.076 64.9349 203.076 67.6334C203.069 67.6334 203.067 67.6334 203.065 67.6334Z" fill="#FDFCFC"/>
<path d="M127.227 67.6076C127.227 70.3062 127.227 73.0047 127.227 75.7033C127.227 75.9407 127.217 76.1805 127.246 76.4156C127.295 76.8128 127.525 77.0244 127.93 77.0432C128.273 77.0597 128.618 77.0409 128.962 77.0479C129.145 77.0526 129.335 77.0573 129.512 77.0996C129.921 77.196 130.095 77.3958 130.097 77.826C130.106 79.1494 130.111 80.4705 130.097 81.7939C130.092 82.3134 129.838 82.5391 129.3 82.572C129.143 82.5814 128.983 82.5744 128.823 82.5744C125.252 82.5744 121.682 82.5744 118.109 82.5744C117.923 82.5744 117.737 82.5861 117.554 82.5673C117.159 82.5273 116.938 82.3228 116.858 81.9256C116.827 81.7704 116.818 81.6106 116.818 81.4531C116.816 80.3694 116.809 79.2834 116.818 78.1997C116.827 77.29 117.046 77.0738 117.944 77.0597C118.313 77.0526 118.684 77.0785 119.053 77.0573C119.493 77.0338 119.726 76.7917 119.763 76.3615C119.777 76.204 119.768 76.0442 119.768 75.8867C119.768 72.1844 119.768 68.4797 119.768 64.7774C119.768 64.6175 119.775 64.46 119.761 64.3025C119.728 63.9452 119.535 63.7148 119.183 63.642C118.978 63.5997 118.764 63.6044 118.553 63.5997C118.235 63.5926 117.916 63.6161 117.601 63.5926C117.098 63.5527 116.905 63.3599 116.837 62.8522C116.816 62.6947 116.816 62.5348 116.816 62.3773C116.813 61.3712 116.816 60.3675 116.816 59.3614C116.816 59.3073 116.813 59.2556 116.816 59.2016C116.853 58.3342 117.055 58.1249 117.904 58.1249C120.654 58.1202 123.407 58.1202 126.157 58.1249C127.029 58.1273 127.222 58.3201 127.224 59.2016C127.229 62.0059 127.227 64.8103 127.227 67.6146C127.231 67.6076 127.229 67.6076 127.227 67.6076Z" fill="#FDFCFC"/>
<path d="M119.298 50.7179C119.284 48.4166 121.131 46.5549 123.459 46.5243C125.755 46.4938 127.697 48.3649 127.678 50.6615C127.657 53.1932 125.739 54.9515 123.513 54.9515C121.012 54.9515 119.26 52.8829 119.298 50.7179Z" fill="#FDFCFC"/>
<path d="M195.14 50.7391C195.035 48.5107 197.011 46.5408 199.205 46.522C202.035 46.5008 203.488 48.788 203.492 50.6874C203.499 53.1156 201.621 54.9163 199.379 54.9539C197.004 54.9938 195.044 52.9722 195.14 50.7391Z" fill="#FDFCFC"/>
<path d="M85.4294 67.8309C84.8558 64.5047 83.1728 61.8625 80.3284 60.0384C76.4757 57.5678 72.3126 57.0154 67.9404 58.3388C64.8281 59.2791 62.5032 61.2396 61.0223 64.138C59.5625 66.9987 59.2852 70.0382 59.7953 73.1763C60.8977 77.7413 63.6151 80.9077 68.0626 82.4451C71.2149 83.5334 74.4141 83.39 77.5593 82.297C79.9805 81.4554 81.9457 79.9956 83.3914 77.8636C83.5677 77.6027 83.744 77.3323 83.8709 77.0432C84.0778 76.566 83.925 76.2275 83.4407 76.0301C83.1963 75.9313 82.9424 75.8514 82.6885 75.7785C81.5696 75.4612 80.4507 75.1509 79.3294 74.8406C78.3868 74.5797 78.328 74.6008 77.7921 75.4424C77.2937 76.2228 76.6332 76.8269 75.7869 77.1889C73.5091 78.1668 71.2948 78.0023 69.1956 76.6835C68.1989 76.0559 67.5454 75.1368 67.1928 74.0085C67.1458 73.858 67.0988 73.7029 67.08 73.5477C67.0236 73.0799 67.2446 72.7744 67.7029 72.6991C67.9098 72.6662 68.1237 72.6686 68.3353 72.6686C70.9539 72.6662 73.5749 72.6662 76.1936 72.6662C76.1936 72.6709 76.1936 72.6756 76.1936 72.6803C78.8405 72.6803 81.485 72.6803 84.1318 72.6803C84.2893 72.6803 84.4492 72.6874 84.6067 72.6709C85.0839 72.6263 85.2367 72.4923 85.3777 72.0151C85.4083 71.914 85.4388 71.8106 85.4506 71.7071C85.5846 70.4166 85.6527 69.1167 85.4294 67.8309ZM77.5335 67.1562C74.2284 67.1586 70.9234 67.1586 67.6183 67.1562C67.4608 67.1562 67.2986 67.1656 67.1435 67.1398C67.0354 67.1233 66.9672 67.0411 66.9977 66.9094C67.1717 66.176 67.4984 65.5178 67.9803 64.9419C69.0922 63.6067 70.5332 62.9109 72.2586 62.8451C74.1932 62.7699 75.8363 63.421 77.101 64.9254C77.6158 65.539 77.9637 66.2418 78.1541 67.128C77.9002 67.1398 77.7168 67.1562 77.5335 67.1562Z" fill="#FDFDFD"/>
<path d="M62.9076 37.956C63.0392 37.9513 63.1685 37.9184 63.2978 37.8902C63.4812 37.8526 63.5611 37.7304 63.5541 37.5494C63.5399 37.2579 63.5305 36.9688 63.507 36.6773C63.4671 36.2024 63.3989 35.7299 63.3707 35.2575C63.2626 33.4615 63.1662 31.6656 63.0628 29.8697C63.0016 28.8142 62.9429 27.7564 62.8794 26.701C62.7971 25.3282 62.6796 23.9554 62.6349 22.5826C62.5268 19.2517 62.4375 15.9184 62.3693 12.5852C62.3223 10.2298 62.3199 7.87675 62.4422 5.52137C62.4751 4.87963 62.5597 4.2567 62.8794 3.68783C63.0651 3.35874 63.1004 2.98263 63.1873 2.62533C63.225 2.47724 63.1685 2.35971 63.0181 2.31974C62.4069 2.1552 61.7934 1.9977 61.1822 1.83785C61.1352 1.88251 61.0858 1.90837 61.0341 1.92482C61.0858 1.90837 61.1376 1.88016 61.1822 1.83785C60.1761 1.43824 60.1785 1.43824 59.5602 0.483865C59.4756 0.352227 59.3839 0.225284 59.2876 0.103048C59.1841 -0.0285895 59.0619 -0.0332877 58.9608 0.0842462C58.8762 0.182975 58.7892 0.284056 58.7211 0.394538C58.3849 0.939895 57.9383 1.37007 57.3835 1.68506C56.8711 1.80729 56.3563 1.92482 55.8438 2.04941C55.6135 2.10583 55.3807 2.1599 55.1574 2.23747C54.8847 2.33385 54.8354 2.42082 54.9012 2.72171C55.054 3.41986 55.2115 4.11566 55.3878 4.80676C55.6581 5.86221 55.8203 6.92942 55.8086 8.02249C55.8015 8.65717 55.818 9.29185 55.8039 9.92654C55.7663 11.8047 55.6887 13.6829 55.6863 15.5611C55.6722 22.1759 55.6816 28.7907 55.684 35.4055C55.684 36.0943 55.6769 36.7807 55.6816 37.4694C55.684 37.9114 55.7098 37.9278 56.1236 37.8949C56.281 37.8808 56.4409 37.8573 56.5984 37.8597C57.3953 37.8738 57.3765 37.8267 57.3436 37.0534C57.3365 36.8677 57.3318 36.682 57.3247 36.4986C57.1837 33.1136 57.1108 29.7287 57.0803 26.3413C57.0474 22.6108 57.0521 18.8803 57.0544 15.1497C57.0568 12.2655 57.0756 9.38118 57.0897 6.4969C57.0897 6.25948 57.092 6.01971 57.1155 5.78464C57.1367 5.57308 57.2848 5.44849 57.4846 5.44379C57.6162 5.44144 57.7526 5.4438 57.8795 5.46965C58.5612 5.61069 59.2476 5.58013 59.9363 5.58013C60.1221 5.58013 60.3078 5.57308 60.4911 5.57778C60.8437 5.58954 60.8813 5.6248 60.8931 6.00561C60.9354 7.3549 61.0106 8.70183 61.0083 10.0511C60.9989 15.8479 61.2386 21.6376 61.4008 27.4297C61.4878 30.5773 61.5795 33.7248 61.6712 36.8724C61.7064 38.1558 61.4808 38.0172 62.9076 37.956ZM25.7504 19.9404C26.2605 20.5187 26.6601 21.1698 27.0339 21.8421C27.8942 23.3889 28.771 24.9262 29.6337 26.473C31.4085 29.6581 33.2655 32.7963 34.9463 36.0332C35.0192 36.1742 35.0944 36.3129 35.1719 36.4516C35.273 36.6326 35.4282 36.7078 35.635 36.6796C35.8748 36.6444 36.0981 36.5644 36.2956 36.4305C36.3543 36.3905 36.3825 36.3106 36.439 36.233C36.3661 36.0073 36.3073 35.777 36.2203 35.556C35.722 34.3031 35.0803 33.116 34.4785 31.9101C32.4499 27.8434 30.4236 23.7767 28.3996 19.7101C28.1176 19.1436 27.8543 18.5653 27.5651 18.0011C27.2643 17.4135 26.9869 17.35 26.4368 17.7378C26.1359 17.9518 25.8562 18.1962 25.5577 18.4148C24.9065 18.892 24.923 18.8168 25.4072 19.5079C25.5107 19.6583 25.6282 19.8041 25.7504 19.9404ZM17.6218 26.6493C21.6485 30.7653 25.687 34.8719 29.7231 38.9786C29.9064 39.1666 30.1086 39.3382 30.3107 39.5098C30.4259 39.6086 30.5646 39.5992 30.668 39.5004C31.1687 39.0256 31.2322 39.0515 30.8091 38.4802C30.6986 38.3321 30.5858 38.1864 30.4635 38.0454C29.0813 36.4493 27.6733 34.8696 26.3828 33.1959C26.237 33.0079 26.0772 32.8316 25.915 32.6576C24.1026 30.7347 22.2973 28.8072 20.4708 26.8984C19.2649 25.6385 18.059 24.3809 17.1422 22.7918C16.6321 22.9846 16.2349 23.2408 15.8729 23.5511C15.3816 23.9718 15.3534 24.0847 15.7741 24.5854C16.3642 25.2929 16.9753 25.9887 17.6218 26.6493ZM8.43297 32.265C9.04415 32.8128 9.7329 33.2617 10.4216 33.7084C15.2147 36.8136 20.0054 39.9212 24.8008 43.0241C25.111 43.2239 25.4354 43.4049 25.7645 43.5695C25.9502 43.6611 26.1618 43.7082 26.364 43.7622C26.4791 43.7928 26.5755 43.7317 26.6249 43.6329C26.6813 43.5154 26.7166 43.3885 26.7377 43.325C26.7518 43.0782 26.6437 42.9559 26.5215 42.8596C26.1477 42.5657 25.7692 42.2766 25.3814 42.0016C24.0062 41.0166 22.6052 40.0646 21.2536 39.0491C20.2804 38.318 19.3025 37.5987 18.2894 36.9241C16.2866 35.5913 14.2885 34.2514 12.2881 32.9138C11.5617 32.4272 10.8612 31.9124 10.2242 31.3083C9.89979 31.0004 9.53779 30.7277 9.17108 30.4691C8.86784 30.2552 8.64453 30.3093 8.41887 30.6008C8.33895 30.7042 8.26137 30.8147 8.20496 30.9346C7.81944 31.7479 7.77713 31.6774 8.43297 32.265ZM13.0967 73.2162C13.7408 72.9859 14.4013 72.7954 14.9984 72.4475C15.2687 72.4734 15.5226 72.3935 15.7718 72.3065C16.3219 72.1161 16.8719 71.928 17.4149 71.7259C17.6876 71.6248 17.9438 71.4885 18.2118 71.3733C18.4046 71.291 18.5033 71.157 18.4845 70.9431C18.4751 70.8373 18.4774 70.7316 18.468 70.6258C18.4375 70.3319 18.3411 70.2403 18.0614 70.2826C17.4596 70.3742 16.8555 70.4565 16.2631 70.5858C15.8282 70.6798 15.3698 70.7057 14.9773 70.9525C13.5739 71.2228 12.2082 71.6389 10.8401 72.0338C8.75971 72.6333 6.68642 73.2609 4.55905 73.6793C3.54591 73.8791 2.54217 74.1142 1.58544 74.502C0.78151 74.8288 0.842628 74.7442 0.880239 75.6727C0.887291 75.8513 0.962516 76.0323 1.03069 76.2016C1.15057 76.4907 1.25635 76.5424 1.59249 76.4672C2.36587 76.2909 3.13454 76.1052 3.90556 75.9219C5.88483 75.4517 7.8641 74.9863 9.79636 74.3469C10.9012 73.9802 12.0013 73.6088 13.0967 73.2162ZM1.03774 61.2748C1.16467 61.3053 1.29866 61.3241 1.4303 61.3218C2.22483 61.3147 3.01231 61.4252 3.80448 61.4534C6.04938 61.538 8.29428 61.6603 10.5415 61.6509C12.8405 61.6509 15.1418 61.6509 17.4408 61.6509C17.6265 61.6509 17.8122 61.6485 17.9932 61.625C18.1953 61.5992 18.3246 61.4722 18.3693 61.2701C18.3928 61.1666 18.4116 61.0632 18.4187 60.9574C18.4469 60.5907 18.3646 60.4779 17.9861 60.4614C17.1422 60.4215 16.296 60.3886 15.4498 60.3768C14.1545 60.358 12.8593 60.3862 11.5664 60.2851C9.53779 60.13 7.50681 60.0054 5.47347 59.8832C4.18059 59.8056 2.88772 59.7774 1.59485 59.6646C0.381897 59.5588 0.546444 59.5212 0.544093 60.6707C0.548795 61.0585 0.668681 61.1878 1.03774 61.2748ZM20.9644 50.5839C20.7435 50.4993 20.5131 50.4334 20.2898 50.3535C16.2537 48.9408 12.1259 47.7795 8.20731 46.0353C7.307 45.6357 7.29759 45.671 7.05077 46.63C6.71462 47.9464 6.77104 47.7419 7.86176 48.1039C10.9952 49.1453 14.1639 50.0714 17.3303 51.007C18.3434 51.3079 19.3566 51.6158 20.4003 51.7804C21.2888 51.9214 21.1172 51.9355 21.2606 51.1245C21.3053 50.7578 21.2818 50.7061 20.9644 50.5839ZM25.6987 37.4412C24.2225 36.2424 22.7533 35.0294 21.3029 33.7977C20.539 33.1489 19.7679 32.4978 19.1591 31.6891C18.9852 31.4588 18.7854 31.4258 18.5456 31.6021C18.2706 31.8067 18.0049 32.0276 17.7581 32.265C17.3726 32.6317 17.375 32.8386 17.7605 33.1795C17.918 33.3181 18.0943 33.438 18.2635 33.5626C18.5385 33.7671 18.8253 33.9599 19.0933 34.1738C21.6979 36.2471 24.3001 38.3274 26.907 40.3984C27.3818 40.7745 27.8778 41.1318 28.3855 41.4632C28.717 41.6795 29.2341 41.3786 29.2788 40.9532C29.26 40.9061 29.2482 40.8239 29.2036 40.7651C29.0719 40.6006 28.9356 40.4384 28.7875 40.2879C27.8073 39.2818 26.7871 38.3251 25.6987 37.4412ZM19.0863 57.8945C19.1192 57.7934 19.1427 57.69 19.1685 57.5889C19.2508 57.2669 19.2226 57.1987 18.9146 57.1493C18.3411 57.0577 17.7652 56.9848 17.1893 56.9119C14.3073 56.5452 11.4254 56.1785 8.5411 55.8188C7.78183 55.7248 7.01786 55.652 6.25624 55.5861C6.02117 55.565 5.77906 55.5838 5.54634 55.6143C5.29717 55.6473 5.16083 55.7859 5.14437 56.0304C5.12557 56.3195 5.12322 56.611 5.14202 56.9002C5.16788 57.3233 5.2384 57.4009 5.66387 57.4338C6.37613 57.4878 7.08838 57.5066 7.80064 57.5607C10.6708 57.7817 13.541 58.0097 16.075 58.2071C17.1281 58.2306 17.8404 58.2424 18.5526 58.2635C18.83 58.2777 19.0016 58.1507 19.0863 57.8945ZM20.3697 78.3219C20.673 78.162 20.7811 78.0774 20.6565 77.6143C20.6283 77.5133 20.586 77.4145 20.5413 77.3182C20.3862 76.9891 20.2733 76.935 19.916 77.0126C19.3425 77.1395 18.8183 77.3934 18.2941 77.6425C16.0257 78.7215 13.7573 79.8005 11.4912 80.8865C11.3267 80.9641 11.1363 81.0064 11.0211 81.1686C10.9341 81.1756 10.8589 81.1968 10.8354 81.2861C10.5556 81.2837 10.3464 81.4624 10.1114 81.5705C9.29802 81.9466 8.49879 82.3533 7.67605 82.6989C6.89563 83.028 6.13871 83.39 5.43586 83.8601C4.26992 84.6405 4.40391 84.2903 5.09736 85.475C5.13732 85.5432 5.18198 85.609 5.23369 85.6678C5.39589 85.8605 5.55104 85.9193 5.79316 85.7971C6.63705 85.3716 7.52796 85.0354 8.32249 84.5112C8.57636 84.5324 8.78087 84.3937 8.99478 84.2973C9.45081 84.0881 9.9045 83.8695 10.3488 83.6344C12.8287 82.3275 15.3064 81.0158 17.7816 79.7041C18.6467 79.2481 19.5047 78.7779 20.3697 78.3219ZM28.3503 89.6545C28.3949 89.5934 28.4161 89.5182 28.442 89.4641C28.4325 89.4148 28.4326 89.3866 28.4208 89.3654C28.2139 88.9329 27.7462 88.6649 27.3207 88.9235C26.9775 89.1327 26.6836 89.396 26.411 89.6827C24.829 91.3541 23.247 93.023 21.6696 94.6991C20.7811 95.644 19.9043 96.5961 19.0228 97.5458C18.8253 97.7597 18.6279 97.9759 18.5009 98.2392C18.2235 98.8081 18.4351 99.2664 18.9476 99.5861C19.0674 99.6614 19.2038 99.652 19.3119 99.5462C19.5587 99.3088 19.8126 99.076 20.05 98.8269C22.7792 95.9473 25.4237 92.9901 28.0541 90.0212C28.1552 89.9037 28.2563 89.7815 28.3503 89.6545ZM23.6137 44.4815C21.0491 43.003 18.4798 41.5314 15.9105 40.0622C15.1536 39.6297 14.3943 39.1972 13.6256 38.7882C13.1202 38.5178 12.8734 38.5672 12.5161 38.995C12.0695 39.5286 12.0695 39.5921 12.5349 40.0364C12.7065 40.2009 12.8899 40.3561 13.0897 40.483C13.581 40.7933 14.0675 41.1154 14.5847 41.3763C16.3759 42.2836 18.1812 43.1675 19.9795 44.0607C21.1878 44.6602 22.4172 45.2149 23.5831 45.8919C23.7406 45.9836 23.9122 46.0659 24.0861 46.1176C24.4881 46.2351 24.8995 45.9437 24.9394 45.584C24.9512 45.3748 24.8572 45.2784 24.7467 45.2055C24.3753 44.9564 24.0039 44.7048 23.6137 44.4815ZM31.7776 34.1996C30.0968 31.6327 28.442 29.0493 27.0339 26.3178C26.5849 25.4457 26.4556 25.4269 25.6846 25.9934C24.9371 26.5411 24.9253 26.6164 25.4613 27.3521C25.5248 27.4367 25.5859 27.5237 25.6493 27.6083C26.7965 29.1316 27.866 30.7042 28.8181 32.3591C29.1072 32.8621 29.4386 33.344 29.7842 33.8118C30.7433 35.1094 31.7188 36.3952 32.6873 37.6857C32.7507 37.7703 32.8119 37.8573 32.88 37.9396C33.0681 38.1582 33.51 38.1535 33.7169 37.9302C33.7498 37.8949 33.7545 37.8362 33.7827 37.7586C33.7498 37.6293 33.7286 37.4671 33.6652 37.3261C33.5453 37.0628 33.4113 36.8019 33.2585 36.555C32.7696 35.7629 32.2853 34.9754 31.7776 34.1996ZM17.7299 66.7683C17.4149 66.7824 17.1023 66.8435 16.7896 66.8811C15.6895 67.0128 14.5823 67.1045 13.4916 67.2831C11.5923 67.5934 9.69999 67.9578 7.80769 68.3033C7.65255 68.3315 7.49975 68.3762 7.35401 68.4302C7.16596 68.5008 7.05547 68.6418 7.05077 68.851C7.04842 68.9568 7.05077 69.0626 7.05077 69.1684C7.04607 69.1684 7.04137 69.1684 7.03667 69.1684C7.04842 69.3517 7.04372 69.5398 7.07428 69.7208C7.14715 70.1533 7.27879 70.2708 7.71131 70.2168C8.2073 70.158 8.7033 70.0687 9.19224 69.9629C11.0469 69.5609 12.9016 69.1449 14.7539 68.7358C15.6801 68.5313 16.611 68.3409 17.5348 68.12C18.0919 67.986 18.2141 67.7815 18.1789 67.2102C18.1601 66.9305 18.0049 66.7542 17.7299 66.7683ZM36.7046 94.9036C36.6811 94.8942 36.6576 94.8801 36.6317 94.8707C36.4108 94.7931 36.2015 94.8213 36.0605 95.0117C35.903 95.2209 35.7596 95.4466 35.6421 95.6793C34.1047 98.7775 32.5721 101.876 31.0465 104.979C30.6798 105.724 30.9102 106.114 31.7423 106.21C31.7682 106.213 31.794 106.215 31.8222 106.217C32.1114 106.236 32.3441 106.137 32.4757 105.867C32.5556 105.703 32.6285 105.529 32.6732 105.352C32.8495 104.657 33.1316 104.003 33.4536 103.366C34.1682 101.953 34.9063 100.55 35.6233 99.1395C36.1498 98.1052 36.6811 97.0709 37.1724 96.0202C37.4921 95.3432 37.4074 95.1974 36.7046 94.9036ZM12.7277 75.6868C11.557 76.1076 10.4334 76.6388 9.30978 77.1677C8.59517 77.5062 8.50349 77.5438 8.78557 78.4653C8.97363 79.0859 9.16168 79.154 9.7658 78.8484C10.9458 78.2514 12.1447 77.699 13.3694 77.2006C15.2546 76.4367 17.1399 75.668 19.0228 74.897C19.4483 74.723 19.4553 74.7042 19.4483 74.2576C19.4341 73.4725 19.2908 73.362 18.5432 73.5876C18.3411 73.6487 18.1436 73.7263 17.9438 73.7968C16.2067 74.4292 14.4672 75.0592 12.7277 75.6868ZM48.1289 97.9548C48.0537 97.9289 47.9808 97.896 47.9032 97.8819C47.4566 97.7902 47.1839 97.9477 47.064 98.3826C47.0076 98.5848 46.9794 98.7963 46.9465 99.0055C46.7961 99.9176 46.6621 100.832 46.4975 101.739C46.1567 103.61 45.9827 105.503 45.7665 107.475C45.7665 107.524 45.7641 107.656 45.7665 107.788C45.7735 108.293 46.1073 108.697 46.5962 108.796C47.0358 108.885 47.3908 108.697 47.5271 108.265C47.5976 108.042 47.6235 107.799 47.64 107.564C47.7269 106.248 47.7904 104.929 47.8938 103.615C47.9831 102.456 47.969 101.293 48.1453 100.141C48.2323 99.5673 48.3287 98.9938 48.418 98.4226C48.465 98.1311 48.418 98.0558 48.1289 97.9548ZM15.8893 83.2701C15.0572 83.7849 14.2321 84.3091 13.4752 84.932C13.1273 85.2188 12.7982 85.5244 12.5396 85.8958C12.368 86.1426 12.3845 86.3236 12.5749 86.5352C12.8123 86.8008 13.0991 86.8854 13.4305 86.7491C13.6491 86.6598 13.8701 86.5634 14.0699 86.4388C14.8339 85.9663 15.6049 85.5032 16.3454 84.9978C18.0896 83.8037 19.8173 82.586 21.5498 81.3754C21.7002 81.2696 21.8459 81.1545 21.9893 81.0393C22.0763 80.9688 22.0998 80.8653 22.0998 80.7102C22.0575 80.6044 22.0105 80.4516 21.94 80.3106C21.7613 79.9509 21.6015 79.878 21.2536 80.0567C20.7599 80.3082 20.2733 80.5786 19.8009 80.8653C18.4939 81.6552 17.1916 82.4638 15.8893 83.2701ZM44.3325 97.5293C44.2268 97.5316 44.121 97.5128 44.0387 97.5058C43.9376 97.494 43.8577 97.4799 43.7801 97.4752C43.4322 97.4517 43.3711 97.487 43.2606 97.8137C42.9574 98.714 42.6259 99.6073 42.3627 100.519C41.7844 102.524 41.2743 104.546 40.9781 106.617C40.9217 107.012 40.8888 107.405 40.917 107.802C40.9358 108.072 41.0627 108.171 41.3237 108.178C41.6504 108.187 41.8925 108.063 41.9983 107.743C42.09 107.468 42.1817 107.191 42.2404 106.906C42.814 104.106 43.6814 101.389 44.5817 98.6835C44.6405 98.5072 44.6969 98.3332 44.7463 98.1546C44.8803 97.6774 44.7228 97.5246 44.3325 97.5293ZM1.16232 51.9919C1.931 52.18 2.70202 52.3563 3.47539 52.5114C4.92341 52.8006 6.36908 53.0944 7.8453 53.2143C8.0216 53.2684 8.1932 53.3389 8.37185 53.3741C9.33093 53.5622 10.2947 53.7291 11.2538 53.9242C13.3012 54.3379 15.3416 54.7845 17.4126 55.0643C18.0943 55.156 18.7783 55.2194 19.4647 55.2664C19.8573 55.2946 19.9701 55.1795 20.0524 54.7916C20.0735 54.6882 20.0829 54.5824 20.0876 54.4766C20.1135 54.0558 20.0665 53.9783 19.641 53.8795C18.019 53.5011 16.3994 53.1203 14.7704 52.7653C13.997 52.5961 13.2354 52.3728 12.4409 52.3116C12.1847 52.2482 11.9331 52.1659 11.6746 52.1259C10.0103 51.8556 8.3413 51.6064 6.67701 51.329C5.03859 51.0564 3.39547 50.7978 1.83932 50.1772C1.76645 50.149 1.69122 50.1185 1.616 50.0996C1.2446 50.0103 0.969562 50.142 0.884938 50.504C0.812067 50.8096 0.77916 51.1269 0.762705 51.4419C0.739198 51.8344 0.781513 51.9003 1.16232 51.9919ZM3.55061 41.2329C3.96433 41.4633 4.3851 41.6913 4.81998 41.8793C6.58769 42.6456 8.3601 43.3979 10.1349 44.1477C10.2524 44.1971 10.3887 44.2042 10.5157 44.2324L10.5133 44.2135C10.8166 44.5332 11.2044 44.6625 11.6299 44.7095C11.6299 44.7048 11.6275 44.6978 11.6275 44.6931C12.1024 45.0504 12.6454 45.2361 13.2213 45.3395C13.2213 45.3372 13.2213 45.3348 13.2213 45.3348C13.2777 45.4664 13.4117 45.497 13.5245 45.5417C14.3308 45.8661 15.1395 46.1858 15.9504 46.4984C16.0938 46.5525 16.2537 46.5666 16.4041 46.5971C16.6204 46.8181 16.8907 46.9051 17.1916 46.9215C17.3491 47.1284 17.5677 47.2154 17.8192 47.2365C17.8404 47.3305 17.9133 47.3564 18.0026 47.3611C18.0919 47.4152 18.1718 47.4857 18.2682 47.521C19.1615 47.8477 20.0547 48.1697 20.948 48.4941C21.3194 48.6305 21.6838 48.7927 22.0622 48.9078C22.5911 49.0677 22.7604 48.9713 22.9696 48.4495C22.979 48.426 22.9884 48.4001 22.9978 48.3766C23.1106 48.0592 23.073 47.9464 22.7745 47.8124C22.3184 47.6056 21.8553 47.4128 21.3946 47.2107C19.9678 46.5854 18.5362 45.9695 17.1164 45.3301C16.0092 44.8318 14.9185 44.2935 13.8137 43.7904C13.2871 43.5507 12.7512 43.3203 12.1752 43.2192C12.0883 43.097 11.9613 43.0617 11.8203 43.0594C11.7028 42.9089 11.5453 42.8596 11.3619 42.869C11.2256 42.6597 10.9835 42.6127 10.779 42.514C9.15933 41.743 7.53736 40.9767 5.91069 40.215C5.45701 40.0035 4.99158 39.8131 4.53084 39.618C4.3851 39.5569 4.23466 39.5051 4.08186 39.4605C3.70575 39.35 3.60703 39.3946 3.49419 39.7519C3.40722 40.027 3.3273 40.3091 3.26853 40.5911C3.19096 40.9626 3.22622 41.0519 3.55061 41.2329ZM17.9062 88.8153C19.7421 87.3462 21.5803 85.8746 23.4162 84.4031C23.5384 84.3044 23.6442 84.1821 23.7547 84.0693C23.9028 83.9189 23.9169 83.7379 23.8417 83.5545C23.7829 83.4088 23.7077 83.2654 23.616 83.1384C23.4773 82.9504 23.2752 82.8893 23.0495 82.9574C22.7416 83.0515 22.4806 83.2372 22.2197 83.4182C21.5451 83.8859 20.8681 84.3467 20.1958 84.8168C19.1991 85.515 18.2024 86.2108 17.2151 86.923C16.9166 87.1369 16.6086 87.3532 16.4159 87.6823C16.1197 87.7364 15.8823 87.9056 15.6472 88.0749C15.2405 88.3663 14.8339 88.6625 14.4413 88.9752C13.4493 89.7626 12.462 90.5595 11.4795 91.3588C11.2749 91.5233 11.0657 91.6949 10.9059 91.8994C10.6168 92.2685 10.6591 92.9032 11.0328 93.197C11.322 93.425 11.6275 93.2111 11.9002 93.0536C11.9684 93.0136 12.0319 92.9643 12.0977 92.9196C13.8207 91.7466 15.5461 90.5736 17.2668 89.3959C17.5019 89.229 17.7581 89.081 17.9062 88.8153ZM3.89381 66.5309C4.93986 66.4204 5.98592 66.2982 7.03197 66.1806C7.13775 66.183 7.24353 66.1994 7.34696 66.1877C8.57872 66.0561 9.81282 65.9315 11.0422 65.781C12.8217 65.5601 14.5988 65.3203 16.3736 65.0805C16.8178 65.0194 17.2574 64.9348 17.6946 64.8313C18.0943 64.7373 18.2118 64.5446 18.1671 64.145C18.1554 64.0415 18.1319 63.9357 18.0943 63.8394C18.0355 63.6842 17.9368 63.5643 17.7464 63.5737C17.4314 63.5878 17.114 63.5925 16.799 63.616C15.6425 63.7101 14.4883 63.8182 13.3294 63.9075C11.8579 64.018 10.3817 64.1073 8.91016 64.2202C8.22846 64.2719 7.54676 64.3565 6.86507 64.4247C6.25859 64.333 5.65682 64.4599 5.05269 64.4741C3.68225 64.5023 2.31415 64.5446 0.943705 64.5963C0.00108222 64.6315 -0.0200716 64.6645 0.00578591 65.6C0.0104873 65.7834 0.0151872 65.9691 0.0410447 66.1524C0.111565 66.6696 0.379546 66.8788 0.903747 66.8271C1.90043 66.7284 2.89712 66.6367 3.89381 66.5309ZM41.1215 96.8688C40.8183 96.7183 40.4962 96.6055 40.1789 96.4785C40.1037 96.5279 40.0144 96.5538 39.9791 96.6149C39.871 96.7935 39.7699 96.9816 39.6876 97.1743C39.2316 98.2439 38.7826 99.3158 38.3266 100.385C38.0445 101.044 37.8235 101.718 37.666 102.416C37.4897 103.19 37.3252 103.965 36.9209 104.664C36.8809 104.732 36.8644 104.812 36.8339 104.885C36.7399 105.113 36.8315 105.298 36.9796 105.463C37.1277 105.627 37.3322 105.689 37.5438 105.728C37.7248 105.761 37.8541 105.693 37.9128 105.515C38.0797 105.014 38.2208 104.504 38.4112 104.01C39.0012 102.482 39.6077 100.961 40.2094 99.438C40.5103 98.6764 40.8136 97.9148 41.1192 97.1555C41.1544 97.0568 41.2085 96.9111 41.1215 96.8688ZM30.7386 91.7255C30.929 91.4363 30.9149 91.3329 30.7104 91.0931C30.2191 90.5219 29.8289 90.5266 29.354 91.1096C29.3376 91.1308 29.3235 91.1519 29.307 91.173C28.6653 92.0122 28.0259 92.8561 27.3771 93.693C26.3992 94.9553 25.7011 96.3822 24.9747 97.7902C24.9512 97.8349 24.9559 97.8937 24.9488 97.9454L24.9582 97.9571C24.8548 97.9853 24.8266 98.0629 24.8219 98.1569C24.6386 98.3168 24.5563 98.5377 24.474 98.7587C24.333 99.1395 24.5069 99.4992 24.8924 99.6214C25.0147 99.6614 25.1463 99.6755 25.2756 99.6919C25.473 99.7178 25.6376 99.6614 25.7434 99.4827C26.1524 98.7869 26.5591 98.0888 26.9657 97.393C27.2384 96.9111 27.4993 96.4221 27.7885 95.9496C28.5078 94.7766 29.3094 93.6601 30.1368 92.56C30.3413 92.2873 30.5482 92.0123 30.7386 91.7255ZM58.9914 97.3295C58.9726 97.1367 58.8809 97.0333 58.6905 97.0521C58.4554 97.0733 58.218 97.0968 57.9876 97.1508C57.6374 97.2308 57.5904 97.2919 57.635 97.6421C57.7573 98.6388 57.8772 99.6355 58.0299 100.625C58.2251 101.904 58.4578 103.176 58.8104 104.424C58.9115 104.781 59.029 105.131 59.217 105.451C59.3369 105.656 59.5226 105.728 59.7577 105.686C59.9881 105.646 60.155 105.522 60.1973 105.289C60.2372 105.056 60.2372 104.816 60.2561 104.581C60.2561 104.287 60.209 104.003 60.155 103.716C59.7624 101.589 59.2006 99.4898 58.9914 97.3295ZM53.5731 36.776C53.5519 32.077 53.5308 27.3803 53.5049 22.6813C53.5025 22.2347 53.4555 21.7881 53.4297 21.3414C53.4367 21.238 53.4532 21.1322 53.4532 21.0264C53.4555 18.892 53.4555 16.76 53.4532 14.6256C53.4532 14.4422 53.4203 14.2612 53.4015 14.0778C53.4673 13.8592 53.4579 13.6876 53.2393 13.5301C52.9501 13.3233 52.6657 13.1916 52.299 13.1963C51.0296 13.2104 49.7626 13.1916 48.4932 13.2034C47.647 13.2128 46.8008 13.2269 45.9592 13.2833C44.5347 13.3797 43.1125 13.4878 41.688 13.5419C40.8183 13.5748 39.9509 13.6712 39.0835 13.7675C38.6956 13.8099 38.6063 13.9791 38.6321 14.367C38.651 14.6396 38.8202 14.7995 39.0177 14.9335C40.0708 15.641 41.1309 16.3368 42.2757 16.8916C42.3932 16.948 42.5202 16.9833 42.6471 17.0138C42.6777 17.0209 42.727 16.9739 42.7599 16.941C42.7717 16.9292 42.7646 16.8845 42.7505 16.8657C42.7012 16.8046 42.6518 16.7435 42.593 16.6965C42.0477 16.2781 41.5047 15.862 40.9546 15.4506C40.7337 15.2861 40.5362 15.1215 40.5644 14.8112C41.2249 14.8912 41.8808 14.8042 42.5366 14.7431C42.7999 14.7196 43.0632 14.6679 43.3241 14.6726C44.5394 14.7031 45.75 14.602 46.963 14.5715C48.4674 14.5339 49.9695 14.5127 51.4716 14.6584C51.7936 14.689 51.8406 14.736 51.8594 15.0299C51.8665 15.1356 51.8641 15.2414 51.8641 15.3472C51.8759 20.2554 52.1509 25.1566 52.1039 30.0648C52.1039 30.1706 52.1203 30.274 52.1274 30.3798C52.1109 30.4832 52.078 30.5867 52.078 30.6877C52.0545 32.1404 52.0498 33.5908 52.125 35.0412C52.1533 35.5936 52.1768 36.146 52.2614 36.6961C52.3296 37.138 52.5717 37.3331 52.9666 37.4295C53.5425 37.5682 53.6036 37.3402 53.5801 36.9241C53.5707 36.8818 53.5731 36.8301 53.5731 36.776ZM55.7521 100.501C55.6393 99.7436 55.5382 98.982 55.4301 98.2251C55.4113 98.0958 55.4066 97.9383 55.2655 97.8866C54.9952 97.7832 54.7131 97.708 54.417 97.7808C54.2171 97.8302 54.0949 97.9548 54.0949 98.1757C54.0973 98.4931 54.109 98.8104 54.1513 99.1231C54.2665 100.014 54.3911 100.905 54.5274 101.791C54.7085 102.971 54.7014 104.163 54.8025 105.348C54.8636 106.065 54.7978 106.161 55.6534 105.98C55.731 105.964 55.8109 105.956 55.8861 105.935C56.3422 105.815 56.4315 105.693 56.4197 105.084C56.4033 104.943 56.3798 104.68 56.3398 104.419C56.1471 103.115 55.9449 101.808 55.7521 100.501ZM52.078 98.2768C52.0639 98.1405 51.9817 98.0323 51.8547 97.9712C51.5444 97.8208 51.2271 97.856 50.9356 97.9924C50.7052 98.1005 50.7758 98.3614 50.7523 98.5612C50.7311 98.7446 50.7311 98.9303 50.7287 99.116C50.7217 100.094 50.7193 101.072 50.7146 102.05C50.7123 103.211 50.7734 104.377 50.583 105.531C50.5618 105.66 50.5642 105.794 50.5618 105.926C50.5571 106.434 50.717 106.589 51.2106 106.586C51.481 106.586 51.6667 106.464 51.7795 106.234C52.0193 105.75 52.0992 105.23 52.1015 104.697C52.1039 103.719 52.1015 102.741 52.1015 101.763C52.1015 100.785 52.1039 99.8071 52.1015 98.8292C52.1039 98.6459 52.0992 98.4602 52.078 98.2768ZM33.7944 93.6953C33.8297 93.6272 33.8391 93.5472 33.8626 93.4673C33.8109 93.4038 33.7733 93.3286 33.7122 93.284C32.9529 92.7527 32.7954 92.7692 32.33 93.5049C32.2736 93.5943 32.2171 93.6836 32.1607 93.7729C31.1405 95.3808 30.1203 96.9886 29.1001 98.5965C29.0296 98.707 28.9591 98.8198 28.9027 98.9397C28.764 99.2312 28.7993 99.3699 29.0954 99.5156C29.9558 99.934 29.803 100.056 30.4189 99.2523C30.4823 99.1677 30.5364 99.076 30.5952 98.9891C31.5378 97.581 32.424 96.1424 33.2726 94.6756C33.4606 94.3559 33.6252 94.0244 33.7944 93.6953ZM36.4766 30.9933C36.6082 31.4188 36.801 31.8325 37.0031 32.2321C37.3957 33.0102 37.8141 33.7765 38.2231 34.5476C38.5381 35.1446 38.6274 35.194 39.2739 35.0953C39.5066 35.06 39.744 35.013 39.9203 34.8296C40.2682 34.8085 40.5597 34.6181 40.8723 34.4958C41.2132 34.3618 41.2696 34.2467 41.1521 33.8941C40.8888 33.1019 40.555 32.3403 40.0778 31.6468C39.9861 31.0732 39.6735 30.6149 39.2715 30.227C38.7732 29.7428 38.1409 29.5477 37.4545 29.5876C36.7328 29.6323 36.2603 30.2975 36.4766 30.9933ZM64.4144 102.797C63.8173 100.745 63.2179 98.6952 62.6208 96.6431C62.5903 96.542 62.5644 96.4386 62.5292 96.3399C62.3858 95.959 62.2729 95.9097 61.8663 96.039C61.4996 96.1565 61.4478 96.22 61.5231 96.6125C61.6288 97.1555 61.7511 97.6962 61.8827 98.2345C62.2377 99.6943 62.6044 101.154 62.964 102.614C63.0345 102.896 63.1004 103.178 63.1756 103.458C63.2203 103.632 63.3354 103.726 63.5541 103.712C63.8526 103.766 64.1253 103.545 64.4403 103.509C64.5155 103.502 64.5719 103.413 64.5531 103.328C64.5155 103.152 64.4661 102.973 64.4144 102.797ZM70.4039 97.2637C69.6494 95.992 68.8924 94.7202 68.1379 93.4462C68.0485 93.2957 67.931 93.2111 67.7571 93.2299C67.475 93.2369 67.2423 93.3498 67.0307 93.519C66.9132 93.6131 66.8873 93.7353 66.932 93.8716C66.9743 93.9962 67.0237 94.1185 67.0824 94.2383C67.8017 95.6817 68.655 97.0521 69.4543 98.4508C69.6282 98.754 69.9032 98.8081 70.284 98.667C70.5943 98.5518 70.7377 98.3168 70.7025 97.99C70.6743 97.7173 70.5379 97.4893 70.4039 97.2637ZM67.8205 100.399C67.0401 98.7822 66.2573 97.1649 65.4745 95.5477C65.3946 95.3808 65.3147 95.2139 65.2254 95.0517C65.1102 94.8495 64.9809 94.8072 64.7647 94.8942C64.6659 94.9341 64.5695 94.9788 64.4802 95.0352C64.2522 95.1763 64.2052 95.3079 64.311 95.5665C64.4191 95.8344 64.546 96.0977 64.6706 96.3587C65.4134 97.9078 66.2973 99.384 66.9743 100.966C67.0989 101.255 67.3057 101.359 67.5643 101.321C68.0062 101.312 68.1261 101.138 67.9851 100.759C67.9404 100.637 67.877 100.519 67.8205 100.399ZM43.1149 33.8988C43.1666 33.8917 43.2207 33.8847 43.2724 33.88C44.175 33.7812 44.2526 33.6943 43.9212 32.8598C43.5921 32.0276 43.2019 31.219 42.8328 30.4033C42.7341 30.187 42.5977 29.9919 42.4191 29.8297C42.1887 29.6229 41.9231 29.5359 41.6152 29.5994C41.4694 29.6299 41.373 29.7193 41.3989 29.8744C41.4271 30.0554 41.4647 30.2388 41.5235 30.4127C41.8855 31.487 42.2498 32.5589 42.6236 33.6284C42.7153 33.8941 42.7905 33.9199 43.1149 33.8988ZM19.2884 93.1218C19.413 93.0277 19.5493 92.9455 19.6622 92.8373C21.3852 91.2036 23.1059 89.5675 24.8243 87.9268C25.1487 87.6165 25.4519 87.285 25.7716 86.9724C25.9009 86.8455 25.9408 86.7091 25.8797 86.5446C25.8162 86.373 25.7716 86.1943 25.6352 86.0533C25.3038 85.7077 25.0781 85.6725 24.6809 85.9475C24.0062 86.4129 23.3786 86.9371 22.7557 87.466C21.5897 88.458 20.5601 89.6005 19.3448 90.536C19.2414 90.616 19.1568 90.7194 19.1356 90.8604C18.8394 90.9921 18.6161 91.2177 18.3834 91.434C17.8992 91.883 17.4314 92.3555 16.9142 92.7645C16.3171 93.2346 16.3007 93.2534 16.8225 93.8622C16.9589 94.0221 17.114 94.1702 17.2762 94.3042C17.6453 94.6097 17.7816 94.598 18.1977 94.3488C18.6937 94.055 18.9922 93.5919 19.2884 93.1218ZM70.2323 92.4072C70.1077 92.2379 69.9761 92.0734 69.8327 91.9182C69.6987 91.7725 69.5506 91.7795 69.426 91.9182C69.1769 92.1956 69.1463 92.3766 69.3226 92.701C69.4237 92.8867 69.5389 93.063 69.6611 93.2346C70.3781 94.2454 71.1021 95.2515 71.819 96.2623C71.8825 96.354 71.9554 96.4292 72.0682 96.4292C72.3127 96.4268 72.5336 96.3446 72.7099 96.173C72.7429 96.1424 72.7429 96.0766 72.7687 95.999C72.7052 95.8815 72.6512 95.7263 72.5525 95.6088C71.6992 94.598 71.0104 93.4697 70.2323 92.4072ZM33.8062 26.6681C34.1165 26.7104 34.3657 26.5646 34.6007 26.3836C34.7864 26.2426 34.8734 26.0734 34.8217 25.8359C34.7817 25.6502 34.7794 25.4504 34.9463 25.3258C35.3953 24.9944 35.8442 24.6559 36.4625 24.8933C36.5824 24.938 36.721 24.9521 36.8503 24.9497C36.9984 24.9474 36.9796 24.8816 36.9209 24.7593C36.8057 24.5196 36.8433 24.4467 37.0666 24.3409C37.2006 24.2774 37.438 24.315 37.438 24.1199C37.438 23.899 37.2029 23.8778 37.0313 23.8214C36.7798 23.7368 36.5212 23.6898 36.2109 23.6851C35.7173 23.631 35.2707 23.8308 34.8852 24.1834C34.415 24.6112 34.0248 25.1119 33.6252 25.6032C33.5453 25.702 33.4865 25.8312 33.4512 25.9535C33.3713 26.2215 33.5782 26.6375 33.8062 26.6681ZM71.953 90.6113C71.859 90.5243 71.7438 90.4537 71.6286 90.395C71.5041 90.3339 71.3748 90.3527 71.2619 90.4444C71.0433 90.6207 70.9893 90.8205 71.095 91.0696C71.1891 91.2883 71.3184 91.4857 71.4947 91.6502C72.0353 92.1509 72.4913 92.7292 72.9591 93.2981C73.0414 93.3992 73.126 93.5026 73.2224 93.5896C73.4293 93.7776 74.0052 93.6225 74.1015 93.3568C74.1109 93.3333 74.1156 93.3098 74.1298 93.2605C74.0921 93.1852 74.0592 93.0818 73.9981 92.9995C73.3893 92.1439 72.7193 91.3353 71.953 90.6113ZM49.5534 32.2368C49.6803 31.3835 49.5464 30.5467 49.3795 29.7169C49.2572 29.1128 48.9587 28.5862 48.5473 28.1161C47.9197 27.3991 47.2756 26.701 46.5187 26.1157C46.1637 25.8406 45.8346 25.5327 45.4844 25.2506C45.2705 25.079 45.1999 24.9168 45.3245 24.6394C45.475 24.3033 45.4209 24.2304 45.0495 24.214C43.9611 24.1623 42.908 23.8943 41.8479 23.6827C41.7985 23.3536 41.5235 23.2173 41.2908 23.048C41.1709 22.6602 40.91 22.3593 40.6467 22.0654C40.4163 21.8069 40.1483 21.5953 39.8239 21.466C39.422 21.3062 38.98 21.4049 38.745 21.7011C38.4864 22.0278 38.5123 22.5027 38.832 22.8576C39.0083 23.0527 39.2151 23.2196 39.3374 23.4594C39.2504 23.8637 39.248 23.8731 39.5419 23.9836C39.69 24.0377 39.8427 24.0823 39.9532 24.1975C40.2048 24.4631 40.5315 24.5384 40.8723 24.5901C41.5517 24.9474 42.2875 25.1707 42.995 25.4575C43.5827 25.6972 44.1656 25.9417 44.7157 26.2638C45.7077 26.8444 46.4246 27.6648 46.8713 28.7226C47.2027 29.5077 47.4025 30.3257 47.4895 31.172C47.5107 31.3812 47.4848 31.5975 47.6023 31.7879C47.5624 32.0558 47.5248 32.3238 47.6635 32.58C47.5812 33.1912 47.6893 33.7859 47.8304 34.3736C47.8609 34.4982 47.9291 34.6157 47.9878 34.7333C48.0795 34.9237 48.2394 34.9918 48.4439 34.973C48.5497 34.9636 48.6554 34.9542 48.7565 34.9331C50.0917 34.6533 50.4608 33.6543 49.6427 32.5377C49.6169 32.4366 49.5863 32.3356 49.5534 32.2368ZM73.7466 88.5074C73.6996 88.4651 73.5774 88.451 73.5233 88.4815C73.3329 88.585 73.2177 88.7707 73.1566 88.9705C73.1143 89.1068 73.2318 89.2197 73.3258 89.3019C73.8806 89.7838 74.4448 90.2587 75.0066 90.7311C75.0653 90.7805 75.1429 90.8111 75.2158 90.8346C75.4273 90.898 75.8199 90.623 75.7987 90.4326C75.7799 90.3832 75.7729 90.3245 75.7423 90.2892C75.1429 89.624 74.4048 89.1092 73.7466 88.5074ZM47.6423 24.1717C47.8233 23.8731 47.8774 23.5417 47.9244 23.1232C47.9079 23.0222 47.9009 22.8341 47.8445 22.6649C47.741 22.3522 47.3767 22.1759 47.0875 22.2723C46.8525 22.3522 46.702 22.6766 46.7326 22.9728C46.7796 23.4335 47.0382 23.7932 47.2685 24.1693C47.3649 24.3268 47.5506 24.3221 47.6423 24.1717ZM75.6107 86.5164C75.5425 86.507 75.4555 86.5352 75.3968 86.5751C75.3098 86.6315 75.2369 86.7068 75.1664 86.782C74.969 86.9841 74.9478 87.1322 75.1288 87.3203C75.3451 87.5413 75.5848 87.7364 75.827 87.9526C76.0785 87.7317 76.1208 87.5225 76.1796 87.3273C76.2595 87.0429 75.9139 86.554 75.6107 86.5164Z" fill="url(#paint0_linear_31_667)"/>
<defs>
<linearGradient id="paint0_linear_31_667" x1="10.961" y1="93.1315" x2="82.4226" y2="21.6699" gradientUnits="userSpaceOnUse">
<stop stop-color="#FF3400"/>
<stop offset="0.8212" stop-color="#FF6C47"/>
</linearGradient>
</defs>
</svg>
