<svg width="97" height="56" viewBox="0 0 97 56" fill="none" xmlns="http://www.w3.org/2000/svg">
<path d="M73.6081 44.375C73.7452 44.3695 73.7913 44.2533 73.8571 44.1743C74.2115 43.7465 74.5581 43.3131 74.9102 42.8831C75.3885 42.3006 75.8701 41.7225 76.4065 41.1927C76.5996 41.0018 76.8003 40.8175 77.023 40.6617C77.4223 40.3831 77.8677 40.4632 78.1474 40.8647C78.2275 40.9788 78.2714 41.1016 78.2736 41.2442C78.278 41.5316 78.2253 41.8092 78.1529 42.0845C78.0323 42.5376 77.905 42.9884 77.7898 43.4426C77.7536 43.5852 77.7448 43.7344 77.7284 43.8814C77.7262 43.8978 77.7481 43.9275 77.7657 43.934C77.7843 43.9417 77.8194 43.9373 77.8315 43.9242C77.9511 43.8002 78.0728 43.6773 78.1836 43.5457C78.5643 43.0916 78.9373 42.6308 79.3201 42.18C79.7282 41.6995 80.1505 41.2344 80.6288 40.8208C80.8252 40.6508 81.0292 40.4917 81.2607 40.371C81.3934 40.3019 81.5294 40.2504 81.6819 40.2427C82.0494 40.2229 82.3291 40.3655 82.5178 40.6826C82.678 40.9524 82.746 41.2519 82.7932 41.5591C82.8798 42.1218 82.8667 42.6912 82.9292 43.2561C82.9489 43.4393 82.9742 43.6236 83.0071 43.8046C83.0246 43.9 83.0575 43.9966 83.0992 44.0843C83.2133 44.3246 83.3735 44.4079 83.6389 44.3739C84.013 44.3257 84.3487 44.1743 84.6679 43.9801C85.0804 43.73 85.4654 43.4404 85.8285 43.1234C86.2563 42.7504 86.6765 42.3675 87.1021 41.9935C87.2689 41.8476 87.4378 41.7017 87.6188 41.5733C87.8832 41.3847 88.04 41.4 88.2759 41.6172C88.3296 41.6666 88.3768 41.7247 88.4229 41.7829C88.4569 41.8256 88.4514 41.8739 88.4185 41.9178C88.4042 41.9375 88.39 41.9573 88.3735 41.9759C87.6583 42.7614 86.931 43.5347 86.0786 44.1765C85.6925 44.4661 85.2855 44.7217 84.8336 44.8983C84.4716 45.0398 84.0986 45.1034 83.7102 45.0804C83.1705 45.0475 82.7427 44.8149 82.4246 44.3794C82.1339 43.9812 81.9957 43.5238 81.9046 43.0466C81.8245 42.6319 81.8125 42.2129 81.8147 41.7938C81.8147 41.683 81.8245 41.5722 81.7752 41.4669C81.7379 41.3879 81.6808 41.3583 81.5975 41.3923C81.4472 41.4538 81.3188 41.5492 81.1971 41.6545C80.7835 42.0099 80.4127 42.407 80.0628 42.8217C79.4583 43.5391 78.866 44.2664 78.2659 44.9871C78.1156 45.1671 77.9555 45.3382 77.8008 45.5148C77.7086 45.619 77.6011 45.6409 77.4673 45.6015C77.294 45.5499 77.1558 45.4534 77.0439 45.3173C76.8343 45.0617 76.7225 44.7666 76.7093 44.4343C76.695 44.0734 76.7576 43.7212 76.8256 43.3702C76.887 43.0554 76.9484 42.7405 76.9726 42.4202C76.977 42.3599 76.9726 42.2973 76.9627 42.2381C76.955 42.192 76.9078 42.1898 76.8782 42.2074C76.8354 42.2304 76.7982 42.2655 76.7641 42.2995C75.9688 43.0938 75.1987 43.911 74.546 44.8303C74.331 45.1319 74.1314 45.4435 73.9504 45.7671C73.822 45.9964 73.7288 46.037 73.4677 45.9997C73.1496 45.9547 72.9225 45.7868 72.781 45.4994C72.6186 45.1692 72.5594 44.8138 72.5967 44.4551C72.7305 43.1629 72.985 41.8947 73.4063 40.6639C73.4666 40.4895 73.5434 40.3195 73.6213 40.1527C73.6739 40.0419 73.7354 39.9333 73.8056 39.8324C73.912 39.6788 74.0327 39.5187 74.2433 39.5351C74.489 39.5538 74.6832 39.6854 74.8203 39.8928C74.8872 39.9937 74.8784 40.1067 74.8444 40.2142C74.7951 40.3666 74.7402 40.518 74.6766 40.665C74.2115 41.7324 73.8637 42.8349 73.6443 43.979C73.6158 44.1052 73.5752 44.2346 73.6081 44.375Z" fill="#F83301"/>
<path d="M68.7779 38.346C68.8854 38.2396 68.937 38.0992 69.0072 37.9708C69.3297 37.3741 69.6709 36.7905 70.0504 36.2288C70.3411 35.7999 70.6516 35.3863 71.0246 35.0243C71.2286 34.8258 71.4469 34.6492 71.708 34.5274C71.9669 34.4067 72.2279 34.387 72.4967 34.4857C72.919 34.6415 73.1757 35.0572 73.122 35.507C73.1055 35.6408 73.0891 35.7758 73.0287 35.9008C72.9739 36.016 72.93 36.0412 72.7973 36.0346C72.6338 36.027 72.5175 35.9491 72.4408 35.8098C72.4166 35.767 72.4024 35.7187 72.3837 35.6737C72.2652 35.3754 72.2565 35.3732 72.0085 35.5948C71.7595 35.8174 71.55 36.0774 71.3537 36.3451C70.8798 36.9923 70.4728 37.6801 70.0976 38.3888C70.0746 38.4316 70.0636 38.4798 70.0471 38.5259C69.9879 38.6191 69.921 38.708 69.8716 38.8067C69.5601 39.4232 69.2518 40.0408 68.9469 40.6606C68.8997 40.7561 68.8207 40.8482 68.8591 40.9798C69.0149 41.0303 69.1706 40.9919 69.3264 40.9623C69.593 40.9118 69.8574 40.8526 70.125 40.8054C70.6033 40.7199 71.0575 40.7999 71.4919 41.0095C71.6257 41.0742 71.7464 41.1587 71.8495 41.2684C71.9471 41.3726 71.9932 41.4965 72.0096 41.6348C72.025 41.7719 71.8999 41.8717 71.7683 41.8234C71.6992 41.7982 71.6345 41.7598 71.5719 41.7214C71.3877 41.6062 71.1858 41.57 70.9708 41.5711C70.6977 41.5722 70.43 41.6161 70.1645 41.6742C69.6577 41.785 69.1641 41.9375 68.6737 42.1086C68.462 42.1821 68.3139 42.3116 68.2075 42.5025C68.021 42.8381 67.8751 43.1903 67.7446 43.5501C67.3211 44.7096 66.9887 45.8965 66.6739 47.0879C66.1803 48.9593 65.7546 50.8472 65.3992 52.7505C65.2764 53.4043 65.1721 54.0625 65.1019 54.7251C65.0734 54.996 65.0712 55.2626 65.1557 55.5302C65.2402 55.799 65.1798 55.8736 64.9198 55.969C64.6631 56.0634 64.3768 55.9328 64.2616 55.7047C64.1816 55.5445 64.1662 55.3745 64.1684 55.2011C64.1827 54.3367 64.2671 53.4778 64.3878 52.6221C64.7004 50.4216 65.1732 48.2561 65.7448 46.1093C65.9422 45.37 66.211 44.6547 66.4523 43.9285C66.5302 43.6949 66.6081 43.4612 66.6838 43.2265C66.7024 43.1683 66.7145 43.1069 66.7233 43.0466C66.7364 42.9577 66.6805 42.904 66.5938 42.9215C66.3668 42.9676 66.1792 43.0641 66.0706 43.2868C65.9839 43.4623 65.8918 43.4952 65.7217 43.4228C65.4947 43.3274 65.3312 43.1617 65.2456 42.9314C65.1754 42.7416 65.2116 42.5628 65.3762 42.4312C65.4618 42.362 65.555 42.2973 65.6537 42.2513C65.8764 42.1459 66.1046 42.0516 66.3317 41.9562C66.5598 41.8607 66.7825 41.7565 66.9898 41.6194C67.2641 41.4384 67.4725 41.2047 67.6042 40.8987C67.9409 40.1165 68.2964 39.3442 68.6825 38.5851C68.7198 38.5083 68.7461 38.4261 68.7779 38.346Z" fill="#FA3402"/>
<path d="M68.7781 38.346C68.7144 38.2912 68.7144 38.2166 68.7144 38.142C68.7144 37.5617 68.71 36.9814 68.7155 36.4011C68.7188 36.1016 68.8461 35.9732 69.1401 35.959C69.3002 35.9513 69.4615 35.9645 69.6216 35.9568C69.8783 35.9447 69.9716 35.8493 69.9902 35.5926C69.9946 35.5312 69.9924 35.4697 69.9924 35.4072C69.9924 34.1852 69.9924 32.9631 69.9913 31.7411C69.9913 31.457 69.9804 31.1739 69.9036 30.8975C69.7171 30.2338 69.3145 29.7873 68.6179 29.6722C67.884 29.5504 67.2763 29.772 66.8496 30.406C66.6236 30.7417 66.5292 31.1246 66.4908 31.5217C66.4766 31.6687 66.4799 31.8179 66.4799 31.966C66.4821 33.1145 66.4865 34.2619 66.4898 35.4105C66.4898 35.484 66.4865 35.5597 66.4941 35.6321C66.5161 35.8427 66.6159 35.9425 66.8265 35.9546C66.9746 35.9634 67.1227 35.9568 67.2708 35.959C67.3443 35.9601 67.42 35.9579 67.4924 35.9711C67.6712 36.0062 67.7688 36.1159 67.7886 36.3012C67.7974 36.3868 67.7941 36.4735 67.7941 36.5601C67.7941 37.0165 67.7941 37.4739 67.7941 37.9303C67.7941 38.0169 67.7985 38.1036 67.7886 38.1891C67.7644 38.4118 67.6526 38.516 67.4277 38.5314C67.3662 38.5358 67.3048 38.5325 67.2423 38.5325C65.5639 38.5325 63.8844 38.5325 62.206 38.5325C62.1194 38.5325 62.0327 38.5369 61.9471 38.527C61.7969 38.5084 61.6959 38.4228 61.6663 38.2736C61.6466 38.1782 61.6411 38.0784 61.64 37.9796C61.6378 37.486 61.6356 36.9923 61.64 36.4987C61.6433 36.0577 61.7453 35.9601 62.1918 35.9568C62.3278 35.9557 62.4638 35.9656 62.5988 35.9634C62.8971 35.9568 62.9992 35.8559 63.0101 35.5652C63.0123 35.5037 63.0101 35.4412 63.0101 35.3798C63.0101 33.6762 63.0101 31.9725 63.0101 30.2689C63.0101 30.1943 63.0134 30.1208 63.009 30.0462C62.9959 29.8148 62.907 29.715 62.669 29.6908C62.522 29.6755 62.3728 29.6875 62.2258 29.682C62.115 29.6777 62.0031 29.6766 61.8956 29.6557C61.7628 29.6294 61.6784 29.5405 61.6575 29.4045C61.6444 29.32 61.64 29.2323 61.6389 29.1467C61.6378 28.6531 61.6378 28.1594 61.6389 27.6658C61.6389 27.5923 61.64 27.5166 61.651 27.4442C61.6828 27.2347 61.7837 27.1403 61.991 27.1239C62.0645 27.1184 62.1391 27.1206 62.2126 27.1206C63.3118 27.1206 64.4099 27.1206 65.509 27.1206C65.5825 27.1206 65.6571 27.1173 65.7306 27.1239C65.9182 27.1414 66.0246 27.238 66.0444 27.4244C66.0597 27.5714 66.0608 27.7206 66.063 27.8676C66.0674 28.1265 66.0685 28.3854 66.074 28.6443C66.074 28.6629 66.0937 28.6893 66.1102 28.6959C66.1266 28.7024 66.1607 28.6959 66.1716 28.6816C66.2023 28.6432 66.2254 28.5993 66.2506 28.5565C66.7914 27.6022 67.6196 27.0493 68.687 26.8628C69.4637 26.7268 70.2338 26.7805 70.983 27.057C71.7695 27.3477 72.3465 27.8808 72.7952 28.5708C72.849 28.6531 72.8983 28.7375 72.9433 28.8132C73.0036 28.8253 73.0146 28.788 73.03 28.7595C73.6914 27.5363 74.7424 26.9242 76.1037 26.8068C76.6873 26.7564 77.2621 26.8189 77.8227 26.9933C78.6048 27.238 79.2213 27.7009 79.693 28.3711C80.2009 29.0908 80.4138 29.9036 80.4928 30.7626C80.5114 30.9589 80.5114 31.1575 80.5114 31.3549C80.5103 32.6263 80.5059 33.8978 80.5048 35.1692C80.5048 35.3414 80.4862 35.5147 80.5355 35.6847C80.5948 35.8877 80.665 35.9491 80.8745 35.9557C81.0226 35.9601 81.1707 35.9535 81.3188 35.9568C81.4054 35.9579 81.4932 35.959 81.5766 35.9765C81.7444 36.0105 81.8344 36.1126 81.8541 36.2793C81.8596 36.3276 81.8585 36.378 81.8585 36.4274C81.8585 36.9825 81.8585 37.5386 81.8585 38.0937C81.8585 38.131 81.8596 38.1683 81.8563 38.2045C81.8377 38.4064 81.7323 38.5128 81.525 38.5314C81.4394 38.5391 81.3528 38.5336 81.2661 38.5336C79.6239 38.5336 77.9828 38.5336 76.3407 38.5336C76.254 38.5336 76.1673 38.538 76.0818 38.5303C75.8832 38.5117 75.7691 38.3965 75.7483 38.199C75.7417 38.1376 75.7439 38.0762 75.7439 38.0136C75.7439 37.4948 75.7439 36.977 75.7439 36.4581C75.7439 36.4087 75.7417 36.3594 75.7461 36.31C75.7637 36.1137 75.8723 35.9908 76.0697 35.9678C76.2035 35.9524 76.3407 35.9612 76.4767 35.959C76.5633 35.9568 76.65 35.9601 76.7356 35.9502C76.8859 35.9316 76.9846 35.8361 77.0032 35.6902C77.0131 35.6167 77.0098 35.5421 77.0098 35.4686C77.0098 34.1358 77.0076 32.8019 77.0109 31.469C77.012 31.0346 76.8892 30.643 76.6412 30.2898C76.3681 29.9014 75.9863 29.7018 75.5201 29.6546C75.3106 29.6338 75.0989 29.6327 74.8927 29.6777C74.5317 29.7577 74.2312 29.9453 73.9964 30.2316C73.7233 30.5651 73.5719 30.9513 73.5258 31.378C73.5115 31.5129 73.5093 31.6489 73.5093 31.785C73.5083 33.007 73.5083 34.229 73.5083 35.4511C73.5083 35.5246 73.505 35.5992 73.5126 35.6727C73.5302 35.8449 73.6212 35.937 73.8001 35.9502C73.947 35.9612 74.0962 35.9535 74.2443 35.959C74.3299 35.9623 74.4177 35.9634 74.501 35.9831C74.6601 36.0215 74.7566 36.1257 74.772 36.2936C74.7764 36.3429 74.7764 36.3923 74.7764 36.4417C74.7764 36.9726 74.7764 37.5035 74.7764 38.0345C74.7764 38.0959 74.7786 38.1584 74.7687 38.2188C74.7402 38.3943 74.625 38.5062 74.4506 38.5292C74.3902 38.5369 74.3277 38.5336 74.2652 38.5336C72.9071 38.5336 71.549 38.5336 70.191 38.5336C70.1416 38.5336 70.0922 38.5281 70.0429 38.5248C70.0593 38.4788 70.0714 38.4305 70.0933 38.3877C70.4685 37.6791 70.8755 36.9912 71.3494 36.344C71.5457 36.0753 71.7553 35.8164 72.0043 35.5937C72.2522 35.3721 72.261 35.3743 72.3795 35.6727C72.3981 35.7187 72.4124 35.7659 72.4365 35.8087C72.5144 35.948 72.6307 36.0259 72.793 36.0336C72.9258 36.0402 72.9685 36.016 73.0245 35.8997C73.0848 35.7747 73.1013 35.6398 73.1177 35.5059C73.1715 35.0562 72.9148 34.6404 72.4924 34.4846C72.2237 34.3848 71.9626 34.4057 71.7037 34.5263C71.4426 34.6481 71.2232 34.8247 71.0203 35.0233C70.6473 35.3864 70.3369 35.7988 70.0462 36.2277C69.6666 36.7894 69.3244 37.3741 69.0029 37.9698C68.9371 38.0992 68.8856 38.2396 68.7781 38.346Z" fill="#FDFCFC"/>
<path d="M26.2753 24.9321C26.2753 25.4872 26.2654 26.0433 26.2786 26.5984C26.2884 27.0021 26.159 27.1063 25.7849 27.103C24.8338 27.0931 23.8839 27.1019 22.9328 27.0986C22.5444 27.0975 22.4479 27.0087 22.4358 26.6236C22.4249 26.2408 22.4358 25.8579 22.4358 25.4762C22.4358 25.3402 22.4304 25.2052 22.426 25.0692C22.4205 24.9156 22.3382 24.8202 22.1978 24.7642C21.8994 24.6447 21.589 24.5624 21.2763 24.4944C20.718 24.3726 20.1519 24.3408 19.5826 24.3957C19.1317 24.4395 18.7182 24.5876 18.3562 24.8663C17.9305 25.1943 17.7517 25.633 17.7737 26.1596C17.7868 26.4832 17.9338 26.7509 18.151 26.9823C18.3298 27.1732 18.5437 27.3191 18.7719 27.4442C19.282 27.725 19.825 27.9246 20.3779 28.1024C21.2697 28.3887 22.1704 28.6476 23.0458 28.9832C23.6458 29.2136 24.2294 29.478 24.768 29.8312C25.3308 30.1987 25.8288 30.6364 26.1996 31.2057C26.6428 31.8859 26.8556 32.634 26.883 33.4414C26.9236 34.6426 26.6307 35.7396 25.865 36.6874C25.3088 37.3763 24.5958 37.8523 23.7829 38.1814C22.9174 38.5325 22.0124 38.7168 21.0833 38.7694C18.8553 38.8956 16.7096 38.5149 14.6396 37.69C14.4794 37.6264 14.3193 37.5605 14.158 37.5013C13.8695 37.3949 13.7104 37.2051 13.7455 36.8837C13.7466 36.8716 13.7455 36.8596 13.7455 36.8464C13.7455 35.711 13.7521 34.5746 13.7422 33.4392C13.7389 33.0421 13.8486 32.8435 14.339 32.8512C15.2396 32.8655 16.1413 32.8534 17.0431 32.8556C17.5532 32.8567 17.6541 32.9532 17.6585 33.4545C17.6629 33.8495 17.6563 34.2444 17.6541 34.6393C17.6541 34.738 17.6574 34.8367 17.6563 34.9355C17.6541 35.0912 17.7364 35.1889 17.8735 35.2459C17.9305 35.27 17.9876 35.292 18.0468 35.3106C19.0089 35.6332 19.9961 35.7396 21.0043 35.6474C21.2741 35.6222 21.5385 35.5586 21.7963 35.4675C21.9839 35.4017 22.1572 35.3117 22.325 35.2053C23.1182 34.7018 23.1522 33.5467 22.6015 32.9653C22.3525 32.702 22.0683 32.4892 21.7469 32.3247C21.2072 32.0482 20.6423 31.8376 20.0653 31.6555C19.1251 31.3582 18.1828 31.0653 17.2723 30.6847C16.6547 30.4269 16.0678 30.1153 15.538 29.704C14.8996 29.2081 14.4125 28.596 14.1404 27.8303C13.6282 26.3878 13.8311 24.3869 15.0169 23.1067C15.5281 22.5549 16.1479 22.1556 16.839 21.866C17.8548 21.4415 18.9189 21.2616 20.017 21.2692C22.1013 21.2824 24.066 21.7947 25.9396 22.6887C25.9615 22.6997 25.9846 22.7096 26.0065 22.7195C26.1963 22.8017 26.2994 22.9367 26.2775 23.1528C26.2698 23.2263 26.2764 23.3009 26.2764 23.3744C26.2753 23.8943 26.2753 24.4132 26.2753 24.9321Z" fill="#FDFDFD"/>
<path d="M43.0856 27.1206C43.9248 27.1206 44.7651 27.1206 45.6043 27.1206C45.703 27.1206 45.8028 27.1162 45.9005 27.1261C46.0661 27.1425 46.1714 27.2391 46.1999 27.4036C46.2153 27.4881 46.2164 27.5758 46.2164 27.6614C46.2175 28.155 46.2175 28.6487 46.2164 29.1434C46.2164 29.2048 46.2175 29.2674 46.2109 29.3288C46.1857 29.5526 46.0793 29.659 45.8544 29.6776C45.7568 29.6853 45.6569 29.6722 45.5582 29.6809C45.2598 29.7073 45.1403 29.8619 45.2138 30.1559C45.3059 30.5267 45.4145 30.8931 45.5187 31.2606C45.8379 32.3872 46.1583 33.5138 46.4786 34.6404C46.5027 34.7238 46.5279 34.806 46.5554 34.8872C46.6003 35.0211 46.7013 35.0803 46.8362 35.0891C46.9854 35.0989 47.0907 35.0353 47.1543 34.8861C47.1982 34.7841 47.2278 34.6766 47.2607 34.5713C47.6842 33.1672 48.1065 31.7619 48.5277 30.3567C48.5563 30.2623 48.5837 30.1669 48.598 30.0693C48.6276 29.8718 48.5299 29.7325 48.3303 29.6952C48.2349 29.6776 48.1339 29.6875 48.0363 29.6798C47.9507 29.6733 47.8608 29.6722 47.7818 29.6447C47.6699 29.6063 47.5997 29.5164 47.5832 29.3979C47.5712 29.3123 47.569 29.2257 47.569 29.1401C47.5679 28.6465 47.5679 28.1528 47.5679 27.6581C47.5679 27.6087 47.5668 27.5594 47.5701 27.51C47.5898 27.2325 47.6875 27.1348 47.9584 27.1217C48.0319 27.1184 48.1065 27.1206 48.1811 27.1206C49.786 27.1206 51.3909 27.1206 52.9969 27.1206C53.0835 27.1206 53.1702 27.1173 53.2557 27.1228C53.462 27.137 53.5706 27.2358 53.5991 27.4387C53.609 27.5111 53.6079 27.5868 53.6079 27.6603C53.609 28.1539 53.6079 28.6476 53.6079 29.1423C53.6079 29.2038 53.609 29.2663 53.6024 29.3277C53.5816 29.5449 53.4697 29.6601 53.247 29.6733C53.0868 29.6831 52.9267 29.6744 52.7654 29.6755C52.6546 29.6766 52.5427 29.6733 52.433 29.6842C52.2739 29.6996 52.1555 29.7753 52.105 29.9376C52.0721 30.0429 52.0282 30.1461 51.992 30.2503C51.1057 32.8523 50.2193 35.4544 49.3329 38.0564C49.3209 38.0915 49.311 38.1266 49.2978 38.1617C49.1837 38.4842 49.1245 38.5303 48.791 38.5314C47.4823 38.5336 46.1736 38.5281 44.8649 38.5347C44.4766 38.5369 44.4031 38.493 44.2769 38.1167C43.9972 37.2874 43.7252 36.4548 43.4465 35.6255C42.8322 33.7902 42.2168 31.955 41.6003 30.1197C41.461 29.7051 41.4226 29.6765 40.997 29.6733C40.7874 29.6722 40.5768 29.6831 40.3673 29.6787C40.0382 29.6722 39.9362 29.58 39.9318 29.2619C39.9252 28.6816 39.934 28.1013 39.9285 27.521C39.9263 27.2654 40.0799 27.114 40.3421 27.1162C41.258 27.1261 42.1718 27.1206 43.0856 27.1206Z" fill="#FEFEFE"/>
<path d="M87.6297 28.9174C87.6297 30.881 87.6297 32.8435 87.6297 34.8071C87.6297 35.054 87.6264 35.3019 87.6385 35.5476C87.6538 35.8679 87.7493 35.9524 88.0773 35.9612C88.2001 35.9645 88.3241 35.9546 88.4481 35.9557C88.5336 35.9568 88.6225 35.9535 88.7058 35.9732C88.8485 36.0062 88.9472 36.0994 88.9735 36.2475C88.9889 36.332 88.99 36.4186 88.99 36.5053C88.9911 36.9989 88.9911 37.4926 88.9911 37.9873C88.9911 38.0367 88.9933 38.086 88.99 38.1354C88.9702 38.4031 88.8616 38.5139 88.5994 38.5303C88.5259 38.5347 88.4513 38.5314 88.3768 38.5314C86.7093 38.5314 85.043 38.5314 83.3756 38.5314C83.2889 38.5314 83.2023 38.5369 83.1167 38.527C82.9401 38.5084 82.8249 38.3954 82.7953 38.221C82.7909 38.1968 82.7898 38.1716 82.7898 38.1475C82.7898 37.5551 82.7843 36.9616 82.792 36.3693C82.7953 36.0994 82.9335 35.9732 83.2089 35.9557C83.2824 35.9513 83.357 35.9557 83.4316 35.9568C83.5303 35.9579 83.629 35.9645 83.7277 35.9612C84.0568 35.9513 84.1479 35.8635 84.1632 35.5454C84.1676 35.4467 84.1643 35.348 84.1643 35.2492C84.1643 32.8907 84.1643 30.5322 84.1643 28.1737C84.1643 27.1612 84.1643 26.1487 84.1643 25.1361C84.1643 25.0495 84.1665 24.9628 84.1632 24.8773C84.1501 24.5372 84.059 24.4461 83.7146 24.4286C83.629 24.4242 83.5423 24.433 83.4557 24.4363C83.3822 24.4385 83.3076 24.4483 83.2341 24.445C82.9171 24.4297 82.7942 24.3068 82.7909 23.981C82.7854 23.4259 82.7887 22.8698 82.7898 22.3136C82.7898 22.2522 82.7887 22.1874 82.8063 22.1304C82.8491 21.9911 82.9379 21.8924 83.0915 21.877C83.1771 21.8682 83.2637 21.8715 83.3504 21.8715C84.5977 21.8715 85.8449 21.8715 87.0922 21.8715C87.1668 21.8715 87.2403 21.8682 87.3138 21.8748C87.4794 21.8891 87.588 21.9779 87.6242 22.1414C87.6429 22.2247 87.6462 22.3125 87.6462 22.3981C87.6473 24.5712 87.6473 26.7443 87.6473 28.9174C87.6418 28.9174 87.6363 28.9174 87.6297 28.9174Z" fill="#FEFEFE"/>
<path d="M94.7634 31.5623C94.7634 32.8337 94.7634 34.1051 94.7634 35.3765C94.7634 35.4752 94.7612 35.575 94.7732 35.6716C94.7952 35.8438 94.8906 35.9392 95.0628 35.9513C95.2098 35.9612 95.359 35.9502 95.5071 35.9546C95.6179 35.9579 95.7309 35.9601 95.8373 35.9853C95.9964 36.0237 96.0918 36.1312 96.1017 36.3001C96.1061 36.3736 96.105 36.4482 96.105 36.5217C96.105 37.0033 96.105 37.4849 96.105 37.9654C96.105 38.052 96.1104 38.1398 96.0984 38.2243C96.0732 38.4009 95.9569 38.5095 95.7781 38.5292C95.7046 38.5369 95.63 38.5336 95.5565 38.5336C93.8529 38.5336 92.1503 38.5336 90.4467 38.5336C90.3732 38.5336 90.2975 38.538 90.2251 38.5281C90.054 38.5062 89.9377 38.3866 89.9125 38.2122C89.9059 38.1639 89.907 38.1135 89.907 38.0641C89.907 37.5332 89.907 37.0022 89.907 36.4724C89.907 36.4351 89.9059 36.3978 89.9081 36.3616C89.9279 36.0928 90.0562 35.9678 90.3348 35.9557C90.4698 35.9502 90.6058 35.9623 90.7418 35.9634C91.1905 35.9667 91.2892 35.8767 91.2892 35.4269C91.2914 33.6871 91.2914 31.9462 91.2892 30.2064C91.2881 29.7731 91.1718 29.6689 90.7276 29.6788C90.5553 29.682 90.382 29.7007 90.2109 29.6678C90.02 29.6305 89.9322 29.5361 89.9114 29.3464C89.9048 29.2849 89.9081 29.2235 89.9081 29.161C89.9081 28.6553 89.9081 28.1485 89.9081 27.6427C89.9081 27.5813 89.9048 27.5188 89.9114 27.4574C89.9322 27.2566 90.0452 27.1425 90.2416 27.1239C90.3151 27.1173 90.3897 27.1206 90.4632 27.1206C91.7094 27.1206 92.9566 27.1206 94.2028 27.1206C94.2522 27.1206 94.3015 27.1195 94.3509 27.1217C94.6394 27.1327 94.7447 27.2347 94.7666 27.5265C94.7732 27.612 94.7688 27.6987 94.7688 27.7854C94.7688 29.0447 94.7688 30.3029 94.7688 31.5623C94.7655 31.5623 94.7645 31.5623 94.7634 31.5623Z" fill="#FDFCFC"/>
<path d="M59.3726 31.5502C59.3726 32.8095 59.3726 34.0689 59.3726 35.3282C59.3726 35.439 59.3682 35.5509 59.3814 35.6606C59.4044 35.846 59.5119 35.9447 59.7006 35.9535C59.8608 35.9612 60.022 35.9524 60.1822 35.9557C60.2677 35.9579 60.3566 35.9601 60.4389 35.9798C60.6297 36.0248 60.7109 36.118 60.712 36.3188C60.7164 36.9364 60.7186 37.5529 60.712 38.1705C60.7098 38.4129 60.5913 38.5182 60.3401 38.5336C60.2666 38.538 60.192 38.5347 60.1175 38.5347C58.4511 38.5347 56.7848 38.5347 55.1174 38.5347C55.0307 38.5347 54.9441 38.5402 54.8585 38.5314C54.6742 38.5128 54.5711 38.4173 54.5338 38.2319C54.5195 38.1595 54.5152 38.0849 54.5152 38.0114C54.5141 37.5057 54.5108 36.9989 54.5152 36.4932C54.5195 36.0687 54.6216 35.9677 55.0406 35.9612C55.2128 35.9579 55.3862 35.9699 55.5584 35.9601C55.7635 35.9491 55.8721 35.8361 55.8897 35.6354C55.8963 35.5619 55.8919 35.4873 55.8919 35.4138C55.8919 33.686 55.8919 31.9572 55.8919 30.2294C55.8919 30.1548 55.8952 30.0813 55.8886 30.0078C55.8732 29.8411 55.7833 29.7336 55.6187 29.6996C55.5233 29.6798 55.4235 29.682 55.3247 29.6798C55.1766 29.6765 55.0274 29.6875 54.8804 29.6766C54.6457 29.6579 54.5557 29.5679 54.5239 29.331C54.5141 29.2575 54.5141 29.1829 54.5141 29.1094C54.513 28.6399 54.5141 28.1715 54.5141 27.702C54.5141 27.6768 54.513 27.6526 54.5141 27.6274C54.5316 27.2226 54.626 27.125 55.022 27.125C56.3054 27.1228 57.59 27.1228 58.8735 27.125C59.2805 27.1261 59.3704 27.216 59.3715 27.6274C59.3737 28.9361 59.3726 30.2448 59.3726 31.5535C59.3748 31.5502 59.3737 31.5502 59.3726 31.5502Z" fill="#FDFCFC"/>
<path d="M55.6724 23.6684C55.6658 22.5944 56.528 21.7256 57.6141 21.7114C58.6858 21.6971 59.5919 22.5703 59.5831 23.642C59.5733 24.8235 58.6781 25.644 57.6393 25.644C56.4721 25.644 55.6548 24.6787 55.6724 23.6684Z" fill="#FDFCFC"/>
<path d="M91.0654 23.6782C91.016 22.6383 91.9386 21.719 92.9621 21.7103C94.2828 21.7004 94.9608 22.7677 94.963 23.6541C94.9662 24.7873 94.0898 25.6276 93.0432 25.6451C91.9353 25.6638 91.0204 24.7204 91.0654 23.6782Z" fill="#FDFCFC"/>
<path d="M39.8671 31.6544C39.5994 30.1022 38.814 28.8692 37.4866 28.0179C35.6887 26.865 33.7459 26.6072 31.7055 27.2248C30.2531 27.6636 29.1682 28.5785 28.4771 29.9311C27.7959 31.2661 27.6664 32.6845 27.9045 34.149C28.419 36.2793 29.6871 37.7569 31.7626 38.4744C33.2336 38.9823 34.7266 38.9154 36.1944 38.4053C37.3243 38.0125 38.2414 37.3313 38.916 36.3363C38.9983 36.2146 39.0805 36.0884 39.1398 35.9535C39.2363 35.7308 39.165 35.5728 38.939 35.4807C38.825 35.4346 38.7065 35.3973 38.588 35.3633C38.0658 35.2152 37.5437 35.0704 37.0204 34.9256C36.5805 34.8039 36.5531 34.8137 36.303 35.2065C36.0704 35.5706 35.7622 35.8526 35.3673 36.0215C34.3043 36.4779 33.2709 36.4011 32.2913 35.7857C31.8262 35.4928 31.5212 35.0638 31.3567 34.5373C31.3347 34.4671 31.3128 34.3947 31.304 34.3223C31.2777 34.104 31.3808 33.9614 31.5947 33.9263C31.6913 33.9109 31.7911 33.912 31.8898 33.912C33.1119 33.9109 34.335 33.9109 35.557 33.9109C35.557 33.9131 35.557 33.9153 35.557 33.9175C36.7922 33.9175 38.0263 33.9175 39.2615 33.9175C39.335 33.9175 39.4096 33.9208 39.4831 33.9131C39.7058 33.8923 39.7771 33.8297 39.843 33.607C39.8572 33.5599 39.8715 33.5116 39.877 33.4633C39.9395 32.8611 39.9713 32.2545 39.8671 31.6544ZM36.1823 31.3396C34.64 31.3407 33.0976 31.3407 31.5552 31.3396C31.4817 31.3396 31.4061 31.344 31.3337 31.3319C31.2832 31.3242 31.2514 31.2858 31.2656 31.2244C31.3468 30.8821 31.4993 30.575 31.7242 30.3062C32.243 29.6831 32.9155 29.3584 33.7207 29.3277C34.6235 29.2926 35.3903 29.5965 35.9805 30.2985C36.2207 30.5849 36.3831 30.9129 36.4719 31.3264C36.3534 31.3319 36.2679 31.3396 36.1823 31.3396Z" fill="#FDFDFD"/>
<path d="M29.3569 17.7128C29.4183 17.7106 29.4787 17.6953 29.539 17.6821C29.6246 17.6645 29.6618 17.6075 29.6586 17.523C29.652 17.387 29.6476 17.2521 29.6366 17.1161C29.618 16.8945 29.5862 16.674 29.573 16.4535C29.5225 15.6154 29.4776 14.7773 29.4293 13.9392C29.4008 13.4466 29.3733 12.953 29.3437 12.4605C29.3053 11.8198 29.2505 11.1792 29.2296 10.5385C29.1792 8.98412 29.1375 7.4286 29.1057 5.87308C29.0837 4.7739 29.0826 3.67582 29.1397 2.57664C29.155 2.27716 29.1945 1.98646 29.3437 1.72099C29.4304 1.56741 29.4468 1.3919 29.4874 1.22515C29.505 1.15604 29.4787 1.1012 29.4084 1.08255C29.1232 1.00576 28.8369 0.932259 28.5517 0.857664C28.5298 0.878506 28.5067 0.890573 28.4826 0.898252C28.5067 0.890573 28.5309 0.877409 28.5517 0.857664C28.0822 0.671176 28.0833 0.671179 27.7948 0.225803C27.7553 0.164372 27.7125 0.105132 27.6675 0.0480893C27.6193 -0.0133418 27.5622 -0.0155343 27.5151 0.0393149C27.4756 0.0853882 27.435 0.132559 27.4032 0.184118C27.2463 0.438618 27.0379 0.639365 26.779 0.78636C26.5398 0.843404 26.2996 0.898251 26.0604 0.956392C25.9529 0.982719 25.8443 1.00795 25.7401 1.04415C25.6129 1.08913 25.5898 1.12972 25.6206 1.27013C25.6919 1.59593 25.7654 1.92064 25.8476 2.24315C25.9738 2.7357 26.0495 3.23373 26.044 3.74383C26.0407 4.04001 26.0484 4.3362 26.0418 4.63238C26.0243 5.50887 25.9881 6.38536 25.987 7.26185C25.9804 10.3488 25.9848 13.4357 25.9859 16.5226C25.9859 16.844 25.9826 17.1643 25.9848 17.4857C25.9859 17.692 25.9979 17.6997 26.191 17.6843C26.2645 17.6777 26.3391 17.6667 26.4126 17.6678C26.7845 17.6744 26.7757 17.6525 26.7603 17.2916C26.757 17.2049 26.7548 17.1183 26.7515 17.0327C26.6857 15.453 26.6517 13.8734 26.6375 12.2926C26.6221 10.5517 26.6243 8.81079 26.6254 7.06988C26.6265 5.72388 26.6353 4.37788 26.6418 3.03189C26.6418 2.92109 26.6429 2.8092 26.6539 2.6995C26.6638 2.60077 26.7329 2.54263 26.8261 2.54044C26.8876 2.53934 26.9512 2.54044 27.0104 2.5525C27.3286 2.61832 27.6489 2.60406 27.9703 2.60406C28.057 2.60406 28.1436 2.60077 28.2292 2.60296C28.3937 2.60845 28.4113 2.62491 28.4168 2.80262C28.4365 3.43229 28.4716 4.06086 28.4705 4.69052C28.4661 7.39569 28.578 10.0976 28.6537 12.8005C28.6943 14.2694 28.7371 15.7382 28.7799 17.2071C28.7963 17.8061 28.691 17.7413 29.3569 17.7128ZM12.0169 9.30554C12.2549 9.57539 12.4414 9.87926 12.6158 10.193C13.0173 10.9148 13.4265 11.6322 13.8291 12.354C14.6573 13.8405 15.5239 15.3049 16.3083 16.8155C16.3423 16.8813 16.3774 16.946 16.4136 17.0107C16.4607 17.0952 16.5331 17.1303 16.6297 17.1172C16.7416 17.1007 16.8458 17.0634 16.9379 17.0009C16.9654 16.9822 16.9785 16.9449 17.0048 16.9087C16.9708 16.8034 16.9434 16.6959 16.9028 16.5928C16.6703 16.0081 16.3708 15.4541 16.09 14.8914C15.1433 12.9936 14.1977 11.0958 13.2532 9.19803C13.1215 8.93366 12.9987 8.6638 12.8637 8.40052C12.7233 8.12628 12.5939 8.09666 12.3372 8.27766C12.1968 8.37749 12.0662 8.49157 11.9269 8.59359C11.623 8.81628 11.6307 8.78117 11.8567 9.10369C11.905 9.17389 11.9598 9.24191 12.0169 9.30554ZM8.2235 12.4363C10.1026 14.3571 11.9872 16.2736 13.8708 18.19C13.9563 18.2778 14.0507 18.3578 14.145 18.4379C14.1988 18.484 14.2635 18.4796 14.3118 18.4335C14.5454 18.2119 14.575 18.224 14.3776 17.9574C14.326 17.8883 14.2734 17.8203 14.2163 17.7545C13.5713 17.0097 12.9142 16.2725 12.312 15.4914C12.2439 15.4037 12.1693 15.3214 12.0937 15.2402C11.2479 14.3429 10.4054 13.4434 9.55304 12.5526C8.99029 11.9646 8.42753 11.3777 7.99971 10.6362C7.76166 10.7261 7.57627 10.8457 7.40734 10.9905C7.17807 11.1869 7.16491 11.2395 7.36127 11.4732C7.63661 11.8034 7.92182 12.1281 8.2235 12.4363ZM3.93539 15.057C4.2206 15.3126 4.54202 15.5221 4.86343 15.7306C7.10018 17.1797 9.33584 18.6299 11.5737 20.0779C11.7185 20.1712 11.8699 20.2556 12.0234 20.3324C12.1101 20.3752 12.2088 20.3971 12.3032 20.4224C12.3569 20.4366 12.4019 20.4081 12.4249 20.362C12.4513 20.3072 12.4677 20.2479 12.4776 20.2183C12.4842 20.1031 12.4337 20.0461 12.3767 20.0011C12.2023 19.864 12.0256 19.7291 11.8446 19.6007C11.2029 19.1411 10.5491 18.6968 9.91834 18.2229C9.46419 17.8818 9.00784 17.5461 8.53504 17.2312C7.60041 16.6093 6.66797 15.984 5.73444 15.3598C5.39547 15.1327 5.06857 14.8925 4.77129 14.6105C4.6199 14.4668 4.45097 14.3396 4.27984 14.2189C4.13833 14.1191 4.03412 14.1443 3.92881 14.2804C3.89151 14.3286 3.85531 14.3802 3.82898 14.4361C3.64907 14.8157 3.62933 14.7828 3.93539 15.057ZM6.1118 34.1676C6.41238 34.0601 6.72063 33.9712 6.99926 33.8089C7.12541 33.8209 7.24389 33.7836 7.36017 33.743C7.61686 33.6542 7.87356 33.5664 8.12696 33.4721C8.25421 33.4249 8.37378 33.3613 8.49884 33.3075C8.58879 33.2691 8.63487 33.2066 8.62609 33.1068C8.6217 33.0574 8.6228 33.0081 8.61841 32.9587C8.60415 32.8216 8.55917 32.7788 8.42863 32.7985C8.1478 32.8413 7.86588 32.8797 7.58944 32.94C7.3865 32.9839 7.17259 32.996 6.98939 33.1112C6.33449 33.2373 5.69714 33.4315 5.0587 33.6158C4.08787 33.8955 3.12033 34.1884 2.12756 34.3837C1.65476 34.4769 1.18635 34.5866 0.739873 34.7676C0.364705 34.9201 0.393226 34.8806 0.410778 35.3139C0.414069 35.3973 0.449174 35.4818 0.480987 35.5607C0.536933 35.6957 0.586295 35.7198 0.743164 35.6847C1.10407 35.6024 1.46279 35.5158 1.8226 35.4302C2.74626 35.2108 3.66992 34.9936 4.57164 34.6952C5.08722 34.5241 5.60061 34.3508 6.1118 34.1676ZM0.484278 28.5949C0.543515 28.6092 0.606041 28.6179 0.667472 28.6168C1.03825 28.6135 1.40574 28.6651 1.77543 28.6783C2.82305 28.7178 3.87067 28.7748 4.91938 28.7704C5.99223 28.7704 7.06618 28.7704 8.13903 28.7704C8.22569 28.7704 8.31235 28.7693 8.39682 28.7583C8.49116 28.7463 8.55149 28.687 8.57234 28.5927C8.58331 28.5444 8.59208 28.4962 8.59537 28.4468C8.60854 28.2757 8.57014 28.223 8.39353 28.2153C7.99971 28.1967 7.6048 28.1813 7.20988 28.1758C6.60545 28.1671 6.00101 28.1802 5.39766 28.1331C4.45097 28.0607 3.50318 28.0025 2.55429 27.9455C1.95094 27.9093 1.3476 27.8961 0.744262 27.8435C0.178219 27.7941 0.255007 27.7765 0.25391 28.313C0.256104 28.494 0.312051 28.5543 0.484278 28.5949ZM9.78341 23.6058C9.68029 23.5663 9.57279 23.5356 9.46857 23.4983C7.58505 22.839 5.65875 22.2971 3.83008 21.4832C3.40993 21.2967 3.40554 21.3131 3.29036 21.7607C3.13349 22.375 3.15982 22.2796 3.66882 22.4485C5.1311 22.9345 6.60983 23.3667 8.08747 23.8033C8.56027 23.9437 9.03307 24.0874 9.52013 24.1642C9.93479 24.23 9.85471 24.2366 9.92163 23.8581C9.94247 23.687 9.9315 23.6629 9.78341 23.6058ZM11.9927 17.4726C11.3038 16.9131 10.6182 16.3471 9.94137 15.7723C9.58485 15.4695 9.22504 15.1656 8.94092 14.7883C8.85975 14.6808 8.7665 14.6654 8.65461 14.7477C8.52626 14.8431 8.4023 14.9462 8.28712 15.057C8.10721 15.2281 8.10831 15.3247 8.28822 15.4837C8.36172 15.5485 8.44399 15.6044 8.52297 15.6626C8.65132 15.758 8.78515 15.8479 8.91021 15.9478C10.1257 16.9153 11.34 17.8861 12.5566 18.8526C12.7782 19.0281 13.0096 19.1948 13.2466 19.3495C13.4013 19.4504 13.6426 19.31 13.6634 19.1115C13.6547 19.0895 13.6492 19.0511 13.6283 19.0237C13.5669 18.9469 13.5033 18.8712 13.4342 18.801C12.9767 18.3315 12.5006 17.885 11.9927 17.4726ZM8.90692 27.0174C8.92228 26.9703 8.93324 26.922 8.94531 26.8748C8.9837 26.7245 8.97054 26.6927 8.82684 26.6697C8.55917 26.6269 8.29041 26.5929 8.02165 26.5589C6.67675 26.3878 5.33185 26.2166 3.98585 26.0488C3.63152 26.0049 3.275 25.9709 2.91958 25.9402C2.80988 25.9303 2.69689 25.9391 2.58829 25.9534C2.47201 25.9687 2.40839 26.0334 2.40071 26.1475C2.39193 26.2824 2.39083 26.4185 2.39961 26.5534C2.41168 26.7509 2.44459 26.7871 2.64314 26.8024C2.97553 26.8277 3.30791 26.8364 3.6403 26.8617C4.97971 26.9648 6.31913 27.0712 7.50168 27.1633C7.99313 27.1743 8.32551 27.1798 8.6579 27.1897C8.78734 27.1962 8.86743 27.137 8.90692 27.0174ZM9.50587 36.5502C9.64738 36.4756 9.69784 36.4361 9.6397 36.22C9.62654 36.1729 9.60679 36.1268 9.58595 36.0818C9.51355 35.9282 9.46089 35.903 9.29415 35.9392C9.02649 35.9984 8.78186 36.1169 8.53723 36.2332C7.47865 36.7367 6.42006 37.2402 5.36256 37.747C5.28577 37.7832 5.19692 37.803 5.14317 37.8787C5.10258 37.882 5.06747 37.8918 5.0565 37.9335C4.92596 37.9324 4.82833 38.0158 4.71863 38.0662C4.33908 38.2418 3.9661 38.4315 3.58216 38.5928C3.21796 38.7464 2.86473 38.9153 2.53673 39.1347C1.99263 39.4989 2.05516 39.3355 2.37877 39.8883C2.39742 39.9202 2.41826 39.9509 2.44239 39.9783C2.51808 40.0682 2.59048 40.0957 2.70347 40.0386C3.09729 39.8401 3.51305 39.6832 3.88383 39.4386C4.0023 39.4485 4.09774 39.3837 4.19756 39.3387C4.41038 39.2411 4.6221 39.1391 4.82943 39.0294C5.98675 38.4195 7.14297 37.8074 8.29809 37.1952C8.70178 36.9824 9.10218 36.763 9.50587 36.5502ZM13.2301 41.8388C13.251 41.8103 13.2608 41.7752 13.2729 41.7499C13.2685 41.7269 13.2685 41.7137 13.263 41.7038C13.1665 41.502 12.9482 41.3769 12.7497 41.4976C12.5895 41.5952 12.4524 41.7181 12.3251 41.8519C11.5868 42.6319 10.8486 43.4108 10.1125 44.1929C9.69784 44.6339 9.28867 45.0782 8.8773 45.5214C8.78515 45.6212 8.693 45.7221 8.63377 45.845C8.50432 46.1104 8.60305 46.3243 8.8422 46.4735C8.89814 46.5086 8.96177 46.5042 9.01223 46.4549C9.12741 46.3441 9.24588 46.2355 9.35668 46.1192C10.6303 44.7754 11.8644 43.3954 13.0919 42.0099C13.1391 41.9551 13.1863 41.898 13.2301 41.8388ZM11.0197 20.758C9.8229 20.068 8.62389 19.3813 7.42489 18.6957C7.07166 18.4939 6.71734 18.292 6.35862 18.1011C6.12277 17.975 6.00759 17.998 5.84085 18.1977C5.63242 18.4467 5.63242 18.4763 5.84962 18.6836C5.9297 18.7604 6.01527 18.8328 6.10851 18.8921C6.33778 19.0369 6.56485 19.1872 6.80619 19.3089C7.64209 19.7324 8.48458 20.1448 9.32377 20.5617C9.88762 20.8414 10.4613 21.1003 11.0054 21.4162C11.0789 21.459 11.159 21.4974 11.2402 21.5215C11.4278 21.5764 11.6198 21.4404 11.6384 21.2725C11.6439 21.1749 11.6 21.1299 11.5485 21.0959C11.3751 20.9796 11.2018 20.8623 11.0197 20.758ZM14.8295 15.9598C14.0452 14.7619 13.2729 13.5563 12.6158 12.2817C12.4063 11.8747 12.346 11.8659 11.9861 12.1303C11.6373 12.3859 11.6318 12.421 11.8819 12.7643C11.9116 12.8038 11.9401 12.8444 11.9697 12.8839C12.505 13.5947 13.0042 14.3286 13.4484 15.1009C13.5834 15.3357 13.738 15.5605 13.8993 15.7788C14.3469 16.3844 14.8021 16.9844 15.2541 17.5867C15.2837 17.6262 15.3122 17.6667 15.344 17.7051C15.4318 17.8072 15.638 17.805 15.7345 17.7007C15.7499 17.6843 15.7521 17.6569 15.7653 17.6207C15.7499 17.5603 15.74 17.4846 15.7104 17.4188C15.6545 17.296 15.5919 17.1742 15.5206 17.059C15.2925 16.6893 15.0665 16.3218 14.8295 15.9598ZM8.27396 31.1585C8.12696 31.1651 7.98106 31.1936 7.83516 31.2112C7.32177 31.2726 6.80509 31.3154 6.29609 31.3988C5.40973 31.5436 4.52666 31.7136 3.64359 31.8749C3.57119 31.888 3.49989 31.9089 3.43187 31.9341C3.34411 31.967 3.29255 32.0328 3.29036 32.1305C3.28926 32.1798 3.29036 32.2292 3.29036 32.2786C3.28817 32.2786 3.28597 32.2786 3.28378 32.2786C3.28926 32.3641 3.28707 32.4519 3.30133 32.5364C3.33534 32.7382 3.39677 32.7931 3.59861 32.7678C3.83008 32.7404 4.06154 32.6987 4.28971 32.6493C5.15523 32.4618 6.02075 32.2676 6.88517 32.0767C7.31739 31.9813 7.75179 31.8924 8.18291 31.7893C8.44289 31.7268 8.49994 31.6313 8.48348 31.3648C8.4747 31.2342 8.4023 31.152 8.27396 31.1585ZM17.1288 44.2883C17.1178 44.284 17.1069 44.2774 17.0948 44.273C16.9917 44.2368 16.8941 44.2499 16.8282 44.3388C16.7547 44.4364 16.6878 44.5417 16.633 44.6503C15.9155 46.0962 15.2003 47.542 14.4884 48.99C14.3172 49.3378 14.4247 49.5199 14.8131 49.5648C14.8251 49.5659 14.8372 49.567 14.8504 49.5681C14.9853 49.5769 15.0939 49.5308 15.1553 49.4047C15.1926 49.3279 15.2266 49.2467 15.2475 49.1644C15.3298 48.8397 15.4614 48.5348 15.6117 48.2375C15.9452 47.5782 16.2896 46.9233 16.6242 46.2651C16.8699 45.7824 17.1178 45.2998 17.3471 44.8094C17.4963 44.4935 17.4568 44.4255 17.1288 44.2883ZM5.93957 35.3205C5.39328 35.5169 4.86892 35.7648 4.34456 36.0116C4.01108 36.1696 3.9683 36.1871 4.09993 36.6171C4.18769 36.9067 4.27545 36.9385 4.55737 36.7959C5.10806 36.5173 5.66752 36.2595 6.23905 36.027C7.11883 35.6704 7.99861 35.3117 8.8773 34.9519C9.07585 34.8707 9.07914 34.862 9.07585 34.6535C9.06927 34.2871 9.00236 34.2356 8.65351 34.3409C8.55917 34.3694 8.46703 34.4056 8.37378 34.4385C7.56311 34.7336 6.75134 35.0276 5.93957 35.3205ZM22.4601 45.7122C22.425 45.7002 22.391 45.6848 22.3548 45.6782C22.1464 45.6354 22.0192 45.7089 21.9632 45.9119C21.9369 46.0062 21.9237 46.1049 21.9084 46.2026C21.8382 46.6282 21.7756 47.0549 21.6988 47.4784C21.5398 48.3516 21.4586 49.2346 21.3577 50.155C21.3577 50.178 21.3566 50.2395 21.3577 50.3009C21.361 50.5368 21.5167 50.7254 21.7449 50.7715C21.9501 50.8132 22.1157 50.7254 22.1793 50.5236C22.2122 50.4194 22.2243 50.3064 22.232 50.1967C22.2726 49.5824 22.3022 48.967 22.3505 48.3538C22.3921 47.813 22.3856 47.2699 22.4678 46.7324C22.5084 46.4648 22.5534 46.1971 22.5951 45.9305C22.617 45.7945 22.5951 45.7594 22.4601 45.7122ZM7.41502 38.8594C7.02669 39.0996 6.64165 39.3442 6.28842 39.6349C6.12606 39.7688 5.97249 39.9114 5.85182 40.0847C5.77174 40.1999 5.77942 40.2844 5.86827 40.3831C5.97907 40.507 6.1129 40.5465 6.26758 40.4829C6.36959 40.4412 6.47271 40.3962 6.56595 40.3381C6.92247 40.1176 7.28228 39.9015 7.62783 39.6657C8.4418 39.1084 9.24808 38.5401 10.0566 37.9752C10.1268 37.9258 10.1948 37.8721 10.2617 37.8183C10.3023 37.7854 10.3132 37.7372 10.3132 37.6648C10.2935 37.6154 10.2716 37.5441 10.2387 37.4783C10.1553 37.3104 10.0807 37.2764 9.91834 37.3598C9.68797 37.4772 9.46089 37.6033 9.2404 37.7372C8.63048 38.1057 8.02275 38.4831 7.41502 38.8594ZM20.6885 45.5137C20.6392 45.5148 20.5898 45.506 20.5514 45.5027C20.5042 45.4972 20.4669 45.4906 20.4307 45.4884C20.2684 45.4775 20.2399 45.4939 20.1883 45.6464C20.0468 46.0665 19.8921 46.4834 19.7692 46.909C19.4994 47.8448 19.2613 48.7882 19.1231 49.7546C19.0968 49.9389 19.0814 50.1221 19.0946 50.3075C19.1034 50.4336 19.1626 50.4797 19.2844 50.483C19.4369 50.4874 19.5499 50.4293 19.5992 50.2801C19.642 50.1517 19.6848 50.0223 19.7122 49.8895C19.9799 48.583 20.3847 47.3149 20.8048 46.0523C20.8322 45.97 20.8586 45.8888 20.8816 45.8055C20.9441 45.5828 20.8706 45.5115 20.6885 45.5137ZM0.542418 24.2629C0.901131 24.3507 1.26094 24.4329 1.62185 24.5053C2.29759 24.6403 2.97224 24.7774 3.66114 24.8333C3.74341 24.8586 3.82349 24.8915 3.90686 24.9079C4.35443 24.9957 4.8042 25.0736 5.25177 25.1646C6.20724 25.3577 7.15942 25.5661 8.12587 25.6967C8.44399 25.7394 8.76321 25.7691 9.08353 25.791C9.26673 25.8042 9.31938 25.7504 9.35778 25.5694C9.36765 25.5211 9.37204 25.4718 9.37423 25.4224C9.3863 25.2261 9.36436 25.1899 9.1658 25.1438C8.40889 24.9672 7.65306 24.7895 6.89285 24.6238C6.53195 24.5448 6.17652 24.4406 5.80574 24.4121C5.68617 24.3825 5.5688 24.3441 5.44813 24.3254C4.67146 24.1993 3.8926 24.083 3.11594 23.9536C2.35134 23.8263 1.58455 23.7056 0.858349 23.416C0.824343 23.4029 0.789238 23.3886 0.754135 23.3798C0.580811 23.3381 0.452462 23.3996 0.412971 23.5685C0.378964 23.7111 0.363608 23.8592 0.355929 24.0062C0.344959 24.1894 0.364706 24.2201 0.542418 24.2629ZM1.65695 19.242C1.85002 19.3495 2.04638 19.4559 2.24932 19.5437C3.07426 19.9013 3.90138 20.2523 4.7296 20.6023C4.78445 20.6253 4.84808 20.6286 4.90731 20.6418L4.90622 20.633C5.04773 20.7822 5.22873 20.8425 5.42729 20.8645C5.42729 20.8623 5.42619 20.859 5.42619 20.8568C5.64778 21.0235 5.90118 21.1102 6.16994 21.1584C6.16994 21.1573 6.16994 21.1562 6.16994 21.1562C6.19627 21.2177 6.2588 21.2319 6.31145 21.2528C6.68772 21.4042 7.06508 21.5534 7.44354 21.6993C7.51046 21.7245 7.58505 21.7311 7.65526 21.7453C7.75618 21.8484 7.88234 21.889 8.02275 21.8967C8.09625 21.9932 8.19826 22.0338 8.31564 22.0437C8.32551 22.0876 8.35952 22.0997 8.40121 22.1019C8.44289 22.1271 8.48019 22.16 8.52517 22.1764C8.94202 22.3289 9.35887 22.4792 9.77573 22.6306C9.94905 22.6942 10.1191 22.7699 10.2957 22.8237C10.5425 22.8983 10.6215 22.8533 10.7191 22.6097C10.7235 22.5988 10.7279 22.5867 10.7323 22.5757C10.785 22.4277 10.7674 22.375 10.6281 22.3125C10.4153 22.2159 10.1992 22.126 9.98415 22.0316C9.31828 21.7398 8.65022 21.4524 7.98764 21.1541C7.47097 20.9215 6.96196 20.6703 6.44638 20.4355C6.20066 20.3236 5.95054 20.2161 5.68178 20.169C5.64119 20.1119 5.58196 20.0955 5.51614 20.0944C5.46129 20.0242 5.38779 20.0011 5.30223 20.0055C5.2386 19.9079 5.12562 19.8859 5.03018 19.8399C4.27436 19.4801 3.51744 19.1224 2.75832 18.767C2.5466 18.6683 2.3294 18.5794 2.11439 18.4884C2.04638 18.4599 1.97617 18.4357 1.90487 18.4149C1.72935 18.3633 1.68328 18.3842 1.63062 18.5509C1.59003 18.6793 1.55274 18.8109 1.52531 18.9425C1.48911 19.1159 1.50557 19.1575 1.65695 19.242ZM8.35623 41.4472C9.21297 40.7615 10.0708 40.0748 10.9276 39.3881C10.9846 39.342 11.034 39.285 11.0855 39.2323C11.1546 39.1621 11.1612 39.0777 11.1261 38.9921C11.0987 38.9241 11.0636 38.8572 11.0208 38.7979C10.9561 38.7102 10.8617 38.6817 10.7564 38.7135C10.6127 38.7574 10.491 38.844 10.3692 38.9285C10.0544 39.1468 9.73843 39.3618 9.42469 39.5812C8.95957 39.907 8.49445 40.2317 8.03372 40.5641C7.8944 40.6639 7.7507 40.7648 7.66074 40.9184C7.52252 40.9436 7.41173 41.0226 7.30203 41.1016C7.11225 41.2376 6.92247 41.3759 6.73928 41.5217C6.27635 41.8892 5.81562 42.2611 5.35708 42.6341C5.26164 42.7109 5.16401 42.791 5.08941 42.8864C4.95448 43.0586 4.97423 43.3548 5.14865 43.4919C5.28358 43.5983 5.42619 43.4985 5.55344 43.425C5.58525 43.4064 5.61487 43.3833 5.64558 43.3625C6.44967 42.8151 7.25486 42.2677 8.05785 41.7181C8.16755 41.6402 8.28712 41.5711 8.35623 41.4472ZM1.81711 31.0478C2.30527 30.9962 2.79343 30.9392 3.28159 30.8843C3.33095 30.8854 3.38031 30.8931 3.42858 30.8876C4.0034 30.8262 4.57932 30.768 5.15304 30.6978C5.98346 30.5947 6.81277 30.4828 7.641 30.3709C7.84833 30.3424 8.05346 30.3029 8.2575 30.2546C8.44399 30.2107 8.49884 30.1208 8.478 29.9343C8.47251 29.886 8.46154 29.8367 8.44399 29.7917C8.41657 29.7193 8.37049 29.6634 8.28164 29.6677C8.13464 29.6743 7.98655 29.6765 7.83955 29.6875C7.29984 29.7314 6.76122 29.7818 6.2204 29.8235C5.53369 29.8751 4.84479 29.9168 4.15807 29.9694C3.83995 29.9935 3.52182 30.033 3.2037 30.0649C2.92068 30.0221 2.63985 30.0813 2.35792 30.0879C1.71838 30.1011 1.07994 30.1208 0.440396 30.1449C0.000505036 30.1614 -0.00936673 30.1767 0.00270009 30.6133C0.00489406 30.6989 0.00708736 30.7856 0.0191542 30.8711C0.0520637 31.1125 0.177121 31.2101 0.421749 31.186C0.88687 31.1399 1.35199 31.0971 1.81711 31.0478ZM19.19 45.2054C19.0485 45.1352 18.8982 45.0826 18.7501 45.0233C18.715 45.0464 18.6734 45.0584 18.6569 45.0869C18.6064 45.1703 18.5593 45.2581 18.5209 45.348C18.3081 45.8472 18.0985 46.3474 17.8857 46.8465C17.7541 47.1537 17.651 47.4685 17.5775 47.7943C17.4952 48.1552 17.4184 48.5172 17.2297 48.843C17.2111 48.8748 17.2034 48.9121 17.1891 48.9461C17.1453 49.0525 17.188 49.1392 17.2572 49.216C17.3263 49.2928 17.4217 49.3213 17.5204 49.34C17.6049 49.3553 17.6652 49.3235 17.6927 49.2401C17.7705 49.0065 17.8364 48.7684 17.9252 48.5381C18.2006 47.825 18.4836 47.1153 18.7644 46.4044C18.9048 46.049 19.0463 45.6936 19.1889 45.3392C19.2054 45.2932 19.2306 45.2252 19.19 45.2054ZM14.3447 42.8052C14.4335 42.6703 14.4269 42.622 14.3315 42.5101C14.1022 42.2436 13.9201 42.2458 13.6985 42.5178C13.6909 42.5277 13.6843 42.5376 13.6766 42.5474C13.3771 42.939 13.0787 43.3329 12.776 43.7234C12.3196 44.3125 11.9938 44.9783 11.6549 45.6354C11.6439 45.6563 11.6461 45.6837 11.6428 45.7078L11.6472 45.7133C11.5989 45.7265 11.5858 45.7627 11.5836 45.8066C11.498 45.8812 11.4596 45.9843 11.4212 46.0874C11.3554 46.2651 11.4366 46.4329 11.6165 46.49C11.6735 46.5086 11.7349 46.5152 11.7953 46.5229C11.8874 46.535 11.9642 46.5086 12.0136 46.4253C12.2044 46.1006 12.3942 45.7748 12.584 45.45C12.7113 45.2252 12.833 44.997 12.9679 44.7765C13.3036 44.2291 13.6777 43.708 14.0638 43.1946C14.1593 43.0674 14.2558 42.9391 14.3447 42.8052ZM27.5293 45.4204C27.5205 45.3305 27.4778 45.2822 27.3889 45.291C27.2792 45.3009 27.1684 45.3118 27.0609 45.3371C26.8974 45.3744 26.8755 45.4029 26.8964 45.5663C26.9534 46.0314 27.0093 46.4966 27.0806 46.9584C27.1717 47.5552 27.2803 48.1486 27.4448 48.7311C27.492 48.8979 27.5469 49.0613 27.6346 49.2105C27.6906 49.3059 27.7772 49.34 27.8869 49.3202C27.9944 49.3016 28.0723 49.2434 28.0921 49.1348C28.1107 49.0262 28.1107 48.9143 28.1195 48.8046C28.1195 48.6675 28.0975 48.5348 28.0723 48.4009C27.8891 47.4082 27.6269 46.4286 27.5293 45.4204ZM25.0008 17.1621C24.9909 14.9693 24.981 12.7775 24.969 10.5846C24.9679 10.3762 24.9459 10.1678 24.9338 9.95934C24.9371 9.91107 24.9448 9.8617 24.9448 9.81234C24.9459 8.81628 24.9459 7.82132 24.9448 6.82526C24.9448 6.73969 24.9295 6.65522 24.9207 6.56966C24.9514 6.46764 24.947 6.38756 24.845 6.31406C24.7101 6.21752 24.5773 6.1561 24.4062 6.15829C23.8138 6.16487 23.2226 6.1561 22.6302 6.16158C22.2353 6.16597 21.8404 6.17255 21.4476 6.19888C20.7829 6.24385 20.1192 6.29431 19.4544 6.31954C19.0485 6.3349 18.6437 6.37988 18.239 6.42486C18.058 6.4446 18.0163 6.52358 18.0283 6.70458C18.0371 6.83183 18.1161 6.90643 18.2082 6.96896C18.6997 7.29915 19.1944 7.62386 19.7287 7.88274C19.7835 7.90907 19.8427 7.92553 19.902 7.93979C19.9162 7.94308 19.9393 7.92114 19.9546 7.90578C19.9601 7.9003 19.9568 7.87945 19.9503 7.87068C19.9272 7.84216 19.9042 7.81364 19.8768 7.7917C19.6223 7.59644 19.3689 7.40227 19.1122 7.2103C19.009 7.13351 18.9169 7.05672 18.9301 6.91192C19.2383 6.94921 19.5444 6.90863 19.8504 6.88011C19.9733 6.86914 20.0961 6.845 20.2179 6.8472C20.7851 6.86146 21.35 6.81428 21.916 6.80002C22.6181 6.78247 23.3191 6.7726 24.0201 6.84061C24.1703 6.85487 24.1923 6.87681 24.2011 7.01393C24.2044 7.0633 24.2033 7.11267 24.2033 7.16203C24.2087 9.45253 24.3371 11.7397 24.3151 14.0302C24.3151 14.0796 24.3228 14.1279 24.3261 14.1772C24.3184 14.2255 24.3031 14.2738 24.3031 14.3209C24.2921 14.9989 24.2899 15.6757 24.325 16.3526C24.3382 16.6103 24.3492 16.8681 24.3886 17.1248C24.4205 17.3311 24.5334 17.4221 24.7177 17.4671C24.9865 17.5318 25.015 17.4254 25.0041 17.2312C24.9997 17.2115 25.0008 17.1874 25.0008 17.1621ZM26.0177 46.9003C25.965 46.547 25.9178 46.1916 25.8674 45.8384C25.8586 45.778 25.8564 45.7046 25.7906 45.6804C25.6644 45.6321 25.5328 45.597 25.3946 45.6311C25.3013 45.6541 25.2443 45.7122 25.2443 45.8153C25.2454 45.9634 25.2509 46.1115 25.2706 46.2574C25.3244 46.6732 25.3825 47.0889 25.4461 47.5025C25.5306 48.0532 25.5273 48.6094 25.5745 49.1622C25.603 49.4968 25.5723 49.5418 25.9716 49.4573C26.0078 49.4496 26.0451 49.4464 26.0802 49.4365C26.293 49.3805 26.3347 49.3235 26.3292 49.0394C26.3215 48.9736 26.3106 48.8507 26.2919 48.7289C26.202 48.1201 26.1076 47.5102 26.0177 46.9003ZM24.3031 45.8625C24.2965 45.7989 24.2581 45.7484 24.1989 45.7199C24.0541 45.6497 23.906 45.6661 23.7699 45.7298C23.6624 45.7802 23.6954 45.902 23.6844 45.9953C23.6745 46.0808 23.6745 46.1675 23.6734 46.2541C23.6701 46.7105 23.669 47.1668 23.6668 47.6232C23.6657 48.1651 23.6943 48.7092 23.6054 49.2478C23.5955 49.3081 23.5966 49.3707 23.5955 49.4321C23.5933 49.669 23.6679 49.7414 23.8983 49.7403C24.0244 49.7403 24.1111 49.6833 24.1638 49.5758C24.2757 49.3498 24.313 49.1074 24.3141 48.8584C24.3151 48.402 24.3141 47.9457 24.3141 47.4893C24.3141 47.033 24.3151 46.5766 24.3141 46.1203C24.3151 46.0347 24.313 45.9481 24.3031 45.8625ZM15.7707 43.7245C15.7872 43.6927 15.7916 43.6554 15.8026 43.6181C15.7784 43.5885 15.7609 43.5534 15.7323 43.5325C15.378 43.2846 15.3045 43.2923 15.0873 43.6356C15.061 43.6773 15.0347 43.719 15.0083 43.7607C14.5322 44.511 14.0562 45.2614 13.5801 46.0117C13.5472 46.0633 13.5142 46.1159 13.4879 46.1719C13.4232 46.3079 13.4397 46.3726 13.5779 46.4406C13.9794 46.6359 13.9081 46.6929 14.1955 46.3178C14.2251 46.2783 14.2503 46.2355 14.2777 46.1949C14.7176 45.5378 15.1312 44.8665 15.5272 44.1819C15.615 44.0327 15.6918 43.8781 15.7707 43.7245ZM17.0224 14.4636C17.0838 14.6621 17.1738 14.8552 17.2681 15.0417C17.4513 15.4048 17.6466 15.7624 17.8375 16.1222C17.9845 16.4008 18.0261 16.4239 18.3278 16.3778C18.4364 16.3613 18.5472 16.3394 18.6295 16.2538C18.7918 16.244 18.9279 16.1551 19.0738 16.0981C19.2328 16.0355 19.2592 15.9818 19.2043 15.8172C19.0814 15.4475 18.9257 15.0921 18.703 14.7685C18.6602 14.5008 18.5143 14.2869 18.3267 14.1059C18.0942 13.88 17.7991 13.7889 17.4787 13.8076C17.142 13.8284 16.9215 14.1388 17.0224 14.4636ZM30.0601 47.972C29.7814 47.0143 29.5017 46.0578 29.2231 45.1001C29.2088 45.0529 29.1967 45.0047 29.1803 44.9586C29.1134 44.7809 29.0607 44.7578 28.8709 44.8182C28.6998 44.873 28.6757 44.9026 28.7108 45.0858C28.7601 45.3392 28.8172 45.5916 28.8786 45.8428C29.0442 46.524 29.2154 47.2052 29.3832 47.8864C29.4161 48.0181 29.4468 48.1497 29.4819 48.2803C29.5028 48.3614 29.5565 48.4053 29.6586 48.3987C29.7979 48.424 29.9251 48.3209 30.0721 48.3044C30.1072 48.3011 30.1336 48.2594 30.1248 48.2199C30.1072 48.1377 30.0842 48.0543 30.0601 47.972ZM32.8552 45.3897C32.503 44.7962 32.1498 44.2028 31.7977 43.6082C31.756 43.538 31.7011 43.4985 31.62 43.5073C31.4883 43.5106 31.3797 43.5632 31.281 43.6422C31.2261 43.6861 31.2141 43.7431 31.2349 43.8068C31.2547 43.8649 31.2777 43.922 31.3051 43.9779C31.6408 44.6514 32.039 45.291 32.412 45.9437C32.4932 46.0852 32.6215 46.1104 32.7992 46.0446C32.944 45.9909 33.0109 45.8812 32.9945 45.7287C32.9813 45.6014 32.9177 45.495 32.8552 45.3897ZM31.6496 46.8531C31.2854 46.0984 30.9201 45.3436 30.5548 44.5889C30.5175 44.511 30.4802 44.4331 30.4385 44.3574C30.3848 44.2631 30.3244 44.2434 30.2235 44.284C30.1774 44.3026 30.1325 44.3234 30.0908 44.3498C29.9844 44.4156 29.9624 44.477 30.0118 44.5977C30.0623 44.7227 30.1215 44.8456 30.1796 44.9674C30.5263 45.6903 30.9387 46.3792 31.2547 47.1175C31.3128 47.2524 31.4093 47.3007 31.53 47.2831C31.7362 47.2787 31.7922 47.1975 31.7264 47.0209C31.7055 46.9639 31.6759 46.909 31.6496 46.8531ZM20.1203 15.8194C20.1444 15.8161 20.1696 15.8128 20.1938 15.8106C20.615 15.7646 20.6512 15.724 20.4965 15.3346C20.343 14.9462 20.1609 14.5689 19.9886 14.1882C19.9426 14.0873 19.8789 13.9962 19.7956 13.9205C19.6881 13.824 19.5641 13.7834 19.4204 13.813C19.3524 13.8273 19.3074 13.869 19.3195 13.9414C19.3326 14.0259 19.3502 14.1114 19.3776 14.1926C19.5466 14.6939 19.7166 15.1941 19.891 15.6933C19.9338 15.8172 19.9689 15.8293 20.1203 15.8194ZM9.00126 43.4568C9.0594 43.4129 9.12302 43.3746 9.17568 43.3241C9.97977 42.5617 10.7828 41.7982 11.5847 41.0325C11.736 40.8877 11.8775 40.733 12.0267 40.5871C12.0871 40.5279 12.1057 40.4643 12.0772 40.3875C12.0476 40.3074 12.0267 40.224 11.9631 40.1582C11.8084 39.9969 11.7031 39.9805 11.5177 40.1088C11.2029 40.326 10.91 40.5707 10.6193 40.8175C10.0752 41.2804 9.59472 41.8135 9.02758 42.2501C8.97932 42.2874 8.93983 42.3357 8.92995 42.4015C8.79173 42.463 8.68752 42.5683 8.57892 42.6692C8.35294 42.8787 8.13464 43.0992 7.8933 43.2901C7.61467 43.5095 7.60699 43.5183 7.85052 43.8024C7.91415 43.877 7.98655 43.9461 8.06224 44.0086C8.23447 44.1512 8.29809 44.1457 8.49226 44.0294C8.72372 43.8923 8.86304 43.6762 9.00126 43.4568ZM32.7751 43.1233C32.7169 43.0444 32.6555 42.9676 32.5886 42.8952C32.5261 42.8272 32.457 42.8305 32.3988 42.8952C32.2825 43.0246 32.2683 43.1091 32.3506 43.2605C32.3977 43.3471 32.4515 43.4294 32.5085 43.5095C32.8431 43.9812 33.181 44.4507 33.5156 44.9224C33.5452 44.9652 33.5792 45.0003 33.6318 45.0003C33.7459 44.9992 33.849 44.9608 33.9313 44.8807C33.9467 44.8665 33.9467 44.8357 33.9587 44.7995C33.9291 44.7447 33.9039 44.6723 33.8578 44.6174C33.4596 44.1457 33.1382 43.6192 32.7751 43.1233ZM15.7762 12.4451C15.921 12.4648 16.0373 12.3968 16.147 12.3124C16.2337 12.2465 16.2743 12.1676 16.2501 12.0568C16.2315 11.9701 16.2304 11.8769 16.3083 11.8187C16.5178 11.664 16.7273 11.5061 17.0158 11.6169C17.0718 11.6377 17.1365 11.6443 17.1968 11.6432C17.2659 11.6421 17.2572 11.6114 17.2297 11.5544C17.176 11.4425 17.1935 11.4084 17.2977 11.3591C17.3603 11.3295 17.4711 11.347 17.4711 11.256C17.4711 11.1529 17.3614 11.143 17.2813 11.1167C17.1639 11.0772 17.0432 11.0552 16.8984 11.053C16.6681 11.0278 16.4596 11.121 16.2797 11.2856C16.0603 11.4852 15.8782 11.7189 15.6918 11.9482C15.6545 11.9942 15.627 12.0546 15.6106 12.1116C15.5733 12.2367 15.6698 12.4308 15.7762 12.4451ZM33.5781 42.2853C33.5342 42.2447 33.4804 42.2118 33.4267 42.1843C33.3686 42.1558 33.3082 42.1646 33.2556 42.2074C33.1535 42.2896 33.1283 42.3829 33.1777 42.4992C33.2216 42.6012 33.2819 42.6933 33.3642 42.7701C33.6165 43.0038 33.8293 43.2736 34.0476 43.5391C34.086 43.5863 34.1255 43.6345 34.1705 43.6751C34.267 43.7629 34.5357 43.6905 34.5807 43.5665C34.5851 43.5556 34.5873 43.5446 34.5939 43.5215C34.5763 43.4864 34.561 43.4382 34.5325 43.3998C34.2483 43.0005 33.9357 42.6231 33.5781 42.2853ZM23.1249 15.0439C23.1842 14.6457 23.1216 14.2551 23.0437 13.8679C22.9867 13.586 22.8474 13.3402 22.6554 13.1208C22.3625 12.7863 22.0619 12.4605 21.7087 12.1873C21.5431 12.059 21.3895 11.9153 21.226 11.7836C21.1262 11.7035 21.0933 11.6278 21.1514 11.4984C21.2217 11.3415 21.1964 11.3075 21.0231 11.2999C20.5152 11.2757 20.0237 11.1507 19.529 11.0519C19.506 10.8984 19.3776 10.8347 19.269 10.7557C19.2131 10.5747 19.0913 10.4343 18.9685 10.2972C18.8609 10.1765 18.7359 10.0778 18.5845 10.0175C18.3969 9.94288 18.1907 9.98895 18.081 10.1272C17.9603 10.2797 17.9724 10.5012 18.1216 10.6669C18.2039 10.7579 18.3004 10.8358 18.3574 10.9477C18.3168 11.1364 18.3157 11.1408 18.4529 11.1923C18.522 11.2176 18.5933 11.2384 18.6448 11.2922C18.7622 11.4161 18.9147 11.4512 19.0738 11.4754C19.3908 11.6421 19.7341 11.7463 20.0643 11.8802C20.3386 11.992 20.6106 12.1061 20.8673 12.2564C21.3303 12.5274 21.6648 12.9102 21.8733 13.4039C22.0279 13.7703 22.1212 14.152 22.1618 14.5469C22.1716 14.6446 22.1596 14.7455 22.2144 14.8343C22.1958 14.9594 22.1782 15.0844 22.2429 15.204C22.2045 15.4892 22.255 15.7668 22.3208 16.041C22.3351 16.0992 22.3669 16.154 22.3943 16.2089C22.4371 16.2977 22.5117 16.3295 22.6071 16.3207C22.6565 16.3164 22.7059 16.312 22.753 16.3021C23.3761 16.1716 23.5484 15.7053 23.1666 15.1843C23.1545 15.1371 23.1403 15.0899 23.1249 15.0439ZM34.4151 41.3034C34.3931 41.2837 34.3361 41.2771 34.3109 41.2914C34.222 41.3397 34.1683 41.4263 34.1397 41.5196C34.12 41.5832 34.1748 41.6358 34.2187 41.6742C34.4776 41.8991 34.7409 42.1207 35.0031 42.3412C35.0305 42.3642 35.0667 42.3785 35.1007 42.3895C35.1994 42.4191 35.3826 42.2907 35.3727 42.2019C35.364 42.1788 35.3607 42.1514 35.3464 42.135C35.0667 41.8245 34.7222 41.5843 34.4151 41.3034ZM22.2331 11.2801C22.3175 11.1408 22.3428 10.9861 22.3647 10.7908C22.357 10.7437 22.3537 10.6559 22.3274 10.5769C22.2791 10.431 22.1091 10.3488 21.9742 10.3937C21.8645 10.431 21.7943 10.5824 21.8085 10.7206C21.8305 10.9357 21.9511 11.1035 22.0587 11.279C22.1036 11.3525 22.1903 11.3503 22.2331 11.2801ZM35.285 40.3743C35.2532 40.3699 35.2126 40.3831 35.1852 40.4017C35.1446 40.4281 35.1106 40.4632 35.0777 40.4983C34.9855 40.5926 34.9756 40.6617 35.0601 40.7495C35.161 40.8526 35.2729 40.9436 35.3859 41.0446C35.5033 40.9414 35.523 40.8438 35.5505 40.7528C35.5878 40.62 35.4265 40.3919 35.285 40.3743Z" fill="url(#paint0_linear_96_160)"/>
<defs>
<linearGradient id="paint0_linear_96_160" x1="5.11515" y1="43.4614" x2="38.4639" y2="10.1126" gradientUnits="userSpaceOnUse">
<stop stop-color="#FF3400"/>
<stop offset="0.8212" stop-color="#FF6C47"/>
</linearGradient>
</defs>
</svg>
